<svg xmlns="http://www.w3.org/2000/svg" xmlns:xlink="http://www.w3.org/1999/xlink" width="175" height="150" viewBox="0 0 175 150">
    <defs>
        <path id="a" d="M0 .247h122.811v80.455H0z"/>
    </defs>
    <g fill="none" fill-rule="evenodd">
        <circle cx="75" cy="75" r="75" fill="#EAF5F5"/>
        <path fill="#C1E5E5" d="M37.575 121.93c6.585 1.854 98.56 1.854 118.667 0 13.692.089 16.775.64 17.843 1.854 1.06 1.2 1.66 6.39-13.228 6.611-87.2 1.297-128.294-1.525-123.282-8.465z" style="mix-blend-mode:multiply"/>
        <path fill="#F6D6B5" d="M40.046 65.219c1.815.006 3.636.052 5.328-.785 2.843-.374 5.685-.672 8.53.007.995.26 1.995.42 3.027.418 30.922-.046 61.845.177 92.768-.123 2.435.052 3.67 1.333 3.802 3.743-.316 3.207-.068 6.428-.216 9.64-.146 3.156-1.722 4.836-4.893 4.988-1.746.083-3.494.068-5.24.069-30.438.003-60.874-.005-91.309.015-2.002.002-4.118-.418-5.834 1.108-1.814 2.525-.88 3.76 1.906 4.08 1.597.183 3.206.098 4.81.098 30.927.004 61.853-.008 92.78.022 2.445.003 4.987-.416 7.255 1.004.439.447.485.933.143 1.458-2.217 1.564-4.77 1.113-7.209 1.115-30.92.034-61.84.021-92.76.023-1.46 0-2.917.017-4.376.041-2.284.04-3.347 1.103-3.618 3.44-.813 7.02.253 8.318 7.22 8.678 6.546.338 13.113-.586 19.65.355 1.533.53 3.105.698 4.725.697 15.724-.008 31.448-.01 47.172 0 1.617.001 3.192-.178 4.737-.642 7.548-.402 15.101-1.042 22.624.364 2.048 1.205 2.198 3.234 2.226 5.287.043 3.314.024 6.63.215 9.943-1.025 3.779-4.02 4.258-7.228 4.273-10.066.046-20.134.017-30.201.017-23.635.002-47.271.014-70.908-.01-3.56-.004-7.219.054-8.33-4.54.5-16.249.064-32.504.227-48.756.024-2.475-.264-5.139 2.977-6.027"/>
        <path fill="#F27062" d="M53.437 65.304c-2.586-.485-5.356.803-7.823-.818 7.73-7.694 15.468-15.379 23.175-23.095.849-.85 2.34-1.534 1.365-3.207 3.25-1.473 5.72.943 8.402 1.877 4.215 1.467 1.57 5.16 2.07 7.848 1.598 7.502 4.848 10.036 12.996 10.104 2.295.025 4.572.094 6.817-.663 3.106-1.048 3.96-2.656 1.617-5.31-.334-.886-.31-1.743.188-2.567.525-.52 1.174-.711 1.891-.736 1.408.088 2.72.584 4.068.945 12.241 4.133 24.507 8.193 36.763 12.282 1.509.504 3.126.853 4.338 1.949 1.114 1.006.897 1.721-.698 1.81-30.154-.02-60.298.003-90.443-.028-1.574-.002-3.206.384-4.726-.39"/>
        <path fill="#00AE9E" d="M103.509 45.64l-1.734-.004c-1.679-.513-1.621-2.173-2.285-3.37-2.129-3.836-6.346-5.611-9.58-4.082a1.79 1.79 0 0 1-.56.94c-2.44.941-4.353 2.455-5.425 4.892-.209.34-.44.663-.673.984-.467.76-.478 1.653-.73 2.473-.213.69-.406 1.534-1.208 1.639-1.177.153-.763-1.368-1.556-1.708 1.223-4.965-.596-7.751-5.834-8.293-1.225-.127-2.396-.78-3.59-1.191-1.823-.51-3.605-.984-5.434.143-.803.495-1.966 1.097-2.501-.365-.414-1.132.32-1.86 1.255-2.459 2.004-1.282 4.16-1.198 6.303-.652 1.957.499 3.883 1.16 5.771 1.88 3.625 1.382 6.643 2.171 10.72-.298 7.029-4.259 14.593.364 17.06 9.472"/>
        <g transform="translate(34.21 44.737)">
            <mask id="b" fill="#fff">
                <use xlink:href="#a"/>
            </mask>
            <path fill="#00AE9E" d="M115.801 19.805c-12.615-4.3-25.233-8.593-37.842-12.913-1.49-.51-2.93-1.164-4.394-1.752-.999-.85-2.093-1.392-3.456-1.072l-1.53.246c-2.863-.546-1.28-2.411-1.143-3.849.628-.319 1.22-.318 1.751.203 15.042 5.01 30.082 10.026 45.127 15.027 7.012 2.332 8.245 4.027 8.269 11.339.05 14.894.118 29.787.18 44.681.283.354-.61 7.745-4.604 8.681-18.83.1-37.66.246-56.49.29-17.518.042-35.037-.012-52.555-.047-6.453-.012-9.055-2.546-9.07-8.97C.004 55.607.064 39.543 0 23.479c-.012-2.966.87-5.343 3.033-7.407 3.591-3.428 7.014-7.03 10.568-10.497 1.178-1.15 2.593-3.533 4.17-2.073 1.828 1.693-.83 2.91-1.86 4.07-3.768 4.239-8.368 7.694-11.713 12.342-.767 4.328-.276 8.692-.344 13.037-.218 13.786.324 27.577-.286 41.36.858 3.726 3.827 3.404 6.592 3.404 26.518.008 53.035.003 79.553.005 7.868 0 15.736.002 23.604.03 2.628.01 5.003-.314 5.73-3.433-.77-4.474.226-9.02-.555-13.491-.158-.776-.492-1.512-.516-2.318.004-2.608.068-5.22-.059-7.83-.023-1.863-.057-3.732 1.25-5.28-.008-.284-.016-.57-.022-.855-1.67-2.215-1.322-4.712-1.011-7.204 1.462-4.827.038-9.826.878-14.69-.354-1.31-1.014-2.328-2.467-2.592-.385.322-.626.219-.744-.251" mask="url(#b)"/>
        </g>
        <path fill="#00AE9E" d="M90.352 30.194c-.1-6.473 5.444-12.55 11.235-12.637 1.173-.017 2.537-.181 2.771 1.357.226 1.482-.95 2.027-2.187 2.138-5.5.497-7.609 4.08-8.304 9.028-.165 1.176-.461 2.412-2.005 2.375-1.75-.042-1.444-1.445-1.51-2.26M58.772 42.643c-.017.623-.511 1.15-1.445 1.212-.777.05-1.214-.291-1.185-1.116.03-.929.55-1.378 1.45-1.495.879-.114 1.152.397 1.18 1.399"/>
        <path fill="#F27062" d="M153.483 90.35l.016 5.395a16.204 16.204 0 0 0 0 8.046l.01 1.775c-.586.56-1.17.564-1.755-.001l-22.752.003a709.028 709.028 0 0 1-56.99 0c-7.85-.12-15.699-.376-23.545-.298-3.743.038-4.651-1.592-4.606-5.145.124-9.757-.006-9.757 9.322-9.758 33.434-.004 66.867-.01 100.3-.016"/>
        <path fill="#FEFDFD" d="M153.509 82.169l-.006 8.182c-34.974-.002-69.947-.003-104.92-.007-6.01-.001-6.828-1.626-4.136-8.182 1.369-.914 2.866-.48 4.3-.48 34.085-.037 68.17-.003 102.254-.049.88 0 1.756-.185 2.508.536"/>
        <path fill="#FAD3C5" d="M153.291 82.456l-108.554-.005c1.435-1.53 3.298-.856 4.96-.858 32.322-.042 64.644-.029 96.966-.033 5.787-.001 5.683-.015 5.845-5.865.076-2.714-.789-5.537.646-8.151.558 4.966.34 9.94.137 14.912"/>
        <path fill="#FED4B9" d="M150.133 64.912c.276 0 .525.066.744.196-1.347 1.02-3.04.59-4.579.591-29.418.026-58.835.026-88.252 0-1.53-.002-3.24.451-4.537-.652 30.17-.012 60.34-.023 90.51-.041 2.037-.001 4.077-.06 6.114-.094"/>
        <path fill="#EEBF92" d="M101.754 75.693c-.045 1.275-.544 2.262-1.982 2.367-1.704.124-2.382-.886-2.403-2.294-.016-1.028.397-2.028 1.627-2.078 1.427-.058 2.594.547 2.758 2.005"/>
        <path fill="#C6EAEA" d="M32.456 23.061c-.046 1.275-.544 2.262-1.982 2.367-1.704.125-2.382-.885-2.403-2.294-.016-1.028.396-2.028 1.627-2.078 1.427-.057 2.594.547 2.758 2.005" style="mix-blend-mode:multiply"/>
        <path fill="#EEC092" d="M143.407 70.175c1.406.156 2.159.884 2.204 2.12.041 1.148-.295 2.305-1.838 2.265-1.414-.035-2.609-.687-2.542-2.24.054-1.238.777-1.97 2.176-2.145"/>
        <path fill="#C6EAEA" d="M74.109 17.544c1.406.155 2.158.883 2.204 2.119.04 1.149-.295 2.305-1.838 2.266-1.414-.035-2.61-.688-2.543-2.24.055-1.239.777-1.97 2.177-2.145" style="mix-blend-mode:multiply"/>
        <path fill="#EFC194" d="M121.053 70.424c-.68 1.327-1.544 2.463-3.142 2.379-1.42-.076-2.317-.999-2.085-2.43.271-1.67 1.593-2.078 3.143-1.92 1.23.123 1.954.793 2.084 1.97"/>
        <path fill="#C6EAEA" d="M51.754 17.792c-.68 1.328-1.543 2.463-3.14 2.38-1.421-.077-2.319-1-2.086-2.431.271-1.67 1.593-2.078 3.143-1.92 1.23.124 1.953.793 2.083 1.971" style="mix-blend-mode:multiply"/>
        <path fill="#EEBF91" d="M143.86 109.882c-.39 1.297-1.143 2.373-2.613 2.398-1.504.026-1.815-1.15-1.77-2.287.05-1.22.78-2.064 2.158-2.097 1.407-.034 2.044.837 2.225 1.986"/>
        <path fill="#C6EAEA" d="M35.088 41.46c-.39 1.298-1.143 2.374-2.613 2.4-1.503.025-1.815-1.152-1.769-2.288.05-1.22.78-2.064 2.157-2.097 1.407-.034 2.044.837 2.225 1.985" style="mix-blend-mode:multiply"/>
        <path fill="#FAD2C6" d="M151.754 105.263l1.755.001-.144 14.034c-1.471-2.737-.472-5.686-.695-8.53-.147-1.872.153-3.794-.916-5.505"/>
        <path fill="#00AE9E" d="M89.415 37.81c-1.843-.618-1.177-1.229.065-1.623 3.71-1.177 9.882 2.516 11.151 6.614l.89 2.86 1.11 3.639-.205 2.48c-.906 4.868-4.67 6.089-8.68 6.992-9.061-.049-13.13-3.363-13.921-11.333.604-.206 1.83 2.629 1.873-.41.014-1.051-.385-2.304.95-2.943 1.261 1.381.962 3.28 1.571 4.883 1.5 3.95 4.337 5.7 8.366 5.048 3.437-.556 5.793-3.23 6.036-6.848.262-3.894-1.633-6.795-5.236-7.949-1.34-.428-2.87-.292-3.97-1.41"/>
        <path fill="#E34E40" d="M93.86 58.692c3.635-1.458 6.605-3.742 8.842-6.938 1.52.113 2.432.875 2.55 2.413.119 1.52-.79 2.34-2.065 2.966-2.958 1.453-6.084 1.826-9.327 1.56" style="mix-blend-mode:multiply"/>
        <path fill="#00AE9E" d="M104.386 48.96c1.761-1.477 2.705-.434 3.509 1.04-1.283.003-2.46-.318-3.509-1.04"/>
        <path fill="#DE949E" d="M153.509 103.509c-1.17-2.632-1.17-5.263 0-7.895v7.895z"/>
        <path fill="#E34E40" d="M89.378 37.879c7.24-1.194 12.035 4.488 10.246 11.529-.995 3.92-4.936 6.188-9.53 5.815-4.007-.325-7.049-3.35-7.578-7.66-.14-1.135.006-2.306.021-3.458l.389-.064c5.143.338 5.143.338 6.434-5.4.012-.254.017-.508.018-.762"/>
        <path fill="#FBF1F1" d="M88.832 38.605c.758 2.324 1.336 4.698-1.254 6.276-1.883 1.148-3.753 1.04-5.122-.986 1.181-2.865 2.59-5.466 6.376-5.29"/>
    </g>
</svg>
