<svg xmlns="http://www.w3.org/2000/svg" xmlns:xlink="http://www.w3.org/1999/xlink" width="175" height="150" viewBox="0 0 175 150">
    <defs>
        <path id="a" d="M0 .705h122.191V82H0z"/>
        <path id="c" d="M0 110h122V0H0z"/>
    </defs>
    <g fill="none" fill-rule="evenodd">
        <circle cx="75" cy="75" r="75" fill="#EAF5F5"/>
        <path fill="#C1E5E5" d="M31.13 121.93c6.895 1.854 103.196 1.854 124.25 0 14.336.089 17.564.64 18.683 1.854 1.11 1.2 1.738 6.39-13.85 6.611-91.304 1.297-134.332-1.525-129.083-8.465z" style="mix-blend-mode:multiply"/>
        <path fill="#C6EAEA" d="M32.456 23.061c-.046 1.275-.544 2.262-1.982 2.367-1.704.125-2.382-.885-2.403-2.294-.016-1.028.396-2.028 1.627-2.078 1.427-.057 2.594.547 2.758 2.005M74.109 17.544c1.406.155 2.158.883 2.204 2.119.04 1.149-.295 2.305-1.838 2.266-1.414-.035-2.61-.688-2.543-2.24.055-1.239.777-1.97 2.177-2.145M51.754 17.792c-.68 1.328-1.543 2.463-3.14 2.38-1.421-.077-2.319-1-2.086-2.431.271-1.67 1.593-2.078 3.143-1.92 1.23.124 1.953.793 2.083 1.971M35.088 41.46c-.39 1.298-1.143 2.374-2.613 2.4-1.503.025-1.815-1.152-1.769-2.288.05-1.22.78-2.064 2.157-2.097 1.407-.034 2.044.837 2.225 1.985" style="mix-blend-mode:multiply"/>
        <g transform="translate(28 14)">
            <g transform="translate(0 29)">
                <mask id="b" fill="#fff">
                    <use xlink:href="#a"/>
                </mask>
                <path fill="#00AE9E" d="M111.4 69.982l.119.669-.12-.004v-.665zm-3.897-5.09c-.063 4.74.358 4.833-4.905 4.8-.624-.003-1.248 0-1.873 0-27.28.002-54.56-.006-81.84.014-1.515.002-3.112-.253-4.478.575.57-1.488.417-3.054.418-4.594.013-18.548.008-37.096.008-55.644 0-1.07.02-2.14.024-3.21.005-1.66.827-2.447 2.472-2.451.891-.003 1.784-.026 2.675-.026 26.554-.002 53.107-.004 79.661 0l8.36 46.754c.01 3.308.021 6.615.047 9.923.026.172.04.346.061.518-.785.913-.615 2.193-.63 3.341zm12.17 5.921c-2.685.04-5.374-.093-8.062-.16.085-10.33.042-55.828.034-64.951-.003-2.151-.638-4.543-3.323-4.996-2.196.019-4.393.009-6.588.038C78.772.68 34.468.712 16.564.717c-4.447.001-5.455 1.035-5.46 5.511-.027 21.495-.056 42.989-.084 64.484-2.85.042-5.702.082-8.553.13-1.015.017-1.898.092-2.164 1.427-.935 4.711.198 6.89 4.667 8.848 1.678.735 3.414.884 5.216.883 33.975-.015 67.95-.01 101.924-.012.713 0 1.43.034 2.139-.03 5.183-.468 8.044-3.648 7.94-8.589-.039-1.809-.657-2.583-2.516-2.556z" mask="url(#b)"/>
            </g>
            <path fill="#00AE9E" d="M82.632.036c3.93 0 7.863.075 11.79-.033 1.762-.05 2.272.594 2.204 2.294-.114 2.958.034 5.927-.062 8.886-.043 1.328.238 1.926 1.692 1.78 1.296-.13 2.619.014 3.926-.038 1.254-.05 1.819.521 1.818 1.746-.004 2.634.003 5.267-.004 7.9-.002 1.104-.487 1.743-1.666 1.696-.458-.02-.929.066-1.373-.013-1.829-.323-2.932.426-3.572 2.154-.252.682-.505 1.609-1.514 1.592-1.001-.016-1.216-.947-1.49-1.63-.629-1.571-1.524-2.283-3.368-2.16-3.122.204-3.131.054-3.133-3.038 0-.461.004-.922-.005-1.383-.007-.32.046-.72-.354-.814-.363-.087-.574.217-.742.51-.916 1.593-1.809 3.2-2.757 4.773-.906 1.501-1.877 1.59-2.45-.057-1.71-4.9-5.124-6.035-9.854-5.404-2.675.357-2.716.063-2.717-2.588-.001-4.542-.001-9.085 0-13.628.001-2.54.003-2.543 2.627-2.544C75.295.034 78.964.036 82.632.036"/>
            <path fill="#FCFCFC" d="M108.307 98.616s-57.725.392-83.364.384c-3.648-.001-7.296-.06-10.943-.091.024-21.389.078-42.778.03-64.166-.006-2.113.625-2.743 2.724-2.74 29.86.055 59.719.057 89.578-.003 2.203-.004 2.675.83 2.668 2.829-.06 17.129-.693 63.787-.693 63.787"/>
            <path fill="#F6D6B5" d="M60.943 102.14c18.407 0 36.813-.013 55.22.037.916.002 2.289-.75 2.719.835.428 1.578-.351 2.636-1.666 3.414-1.577.934-3.181 1.574-5.032 1.573-34.145-.018-68.29-.018-102.436.001-1.943 0-3.617-.71-5.292-1.63-1.361-.747-1.613-1.912-1.378-3.292.277-1.631 1.569-.901 2.378-.903 18.495-.046 36.992-.036 55.487-.036"/>
            <path fill="#EAF5F5" d="M82.456 22c-1.575-4.976-4.847-6.156-9.12-5.364-2.006.371-2.408-.513-2.326-2.416.154-3.59.083-7.195.02-10.79-.018-1.1.284-1.437 1.376-1.429 6.698.05 13.396.052 20.094 0 1.174-.01 1.52.34 1.499 1.544-.07 3.924-.06 7.85-.004 11.775.014 1.038-.302 1.363-1.3 1.325-1.849-.07-3.704.046-5.549-.043-1.164-.056-1.9.298-2.426 1.406-.605 1.275-1.385 2.462-2.264 3.992M95.735 25c-.45-2.898-2.27-2.76-4.053-2.616-1.224.099-1.692-.304-1.682-1.62.01-1.325.367-1.922 1.741-1.748.57.072 1.156.012 1.734.012 2.788-.001 2.817.002 3.135-2.769.083-.72.342-.965 1.048-1.059 3.926-.527 4.284-.238 4.284 3.688 0 .451-.055.91.01 1.351.253 1.73-.49 2.25-2.172 2.17-2.426-.117-2.43-.015-4.045 2.591"/>
            <path fill="#00AE9E" d="M61.595 96.95c-13.866 0-27.733-.052-41.598.05-2.387.017-3.004-.77-2.993-3.074.08-18.64.081-37.28-.004-55.919-.01-2.374.727-3.012 3.047-3.006 27.644.072 55.286.073 82.929-.001 2.375-.006 3.03.754 3.02 3.07-.078 18.64-.083 37.28.004 55.92.011 2.4-.787 3.019-3.075 3.004-13.776-.088-27.553-.044-41.33-.044"/>
            <path fill="#E34E40" d="M74.788 10c-.828 0-1.748.006-1.787-.99-.04-1.05.918-1.006 1.728-1.006 5.128-.003 10.255-.01 15.382.008.825.002 1.944-.163 1.887 1.041-.049 1.013-1.029.94-1.827.942-2.53.007-5.06.002-7.592.003-2.597 0-5.194-.003-7.79.002zM74.555 5.997c-.77 0-1.59-.058-1.554-.983.035-.858.816-1.01 1.597-1.01 5.251-.005 10.503-.007 15.755.003.836.002 1.715.123 1.643 1.137-.068.95-.975.84-1.685.846-2.593.017-5.186.007-7.779.007h-7.977zM82.58 13.997c-2.66 0-5.32-.006-7.981.003-.779.002-1.564-.048-1.598-.956-.035-.921.775-1.034 1.535-1.036 5.322-.011 10.644-.01 15.966 0 .775.002 1.552.155 1.495 1.074-.057.936-.884.914-1.633.914H82.58"/>
            <path fill="#FEFEFE" d="M67.176 38.108c11.393-.026 22.785-.035 34.179-.108 1.303-.009 1.633.408 1.63 1.66-.036 17.558-.052 35.118.015 52.676.007 1.857-.998 1.658-2.178 1.657-13.442-.01-26.884.01-40.326-.011-9.165-.015-18.33-.08-27.496-.124.794-3.797 2.763-6.841 5.891-9.15 4.695-.616 9.413-.137 14.116-.31 1.203-.043 2.467.255 3.792-.547-.853-.857-1.85-.648-2.731-.662-3.468-.059-6.937.02-10.405-.047-1.221-.024-2.531.097-3.42-1.064-.21-1.853 1.024-2.475 2.492-2.825 1.304-.311 2.649-.22 3.979-.222 14.553-.008 29.108-.027 43.662.027 2.15.008 3.635-.492 4.048-2.776 1.913-3.208.963-6.697.943-10.082-.006-1.035-.899-1.441-1.868-1.528-1.149-.101-2.301-.084-3.453-.085-11.253-.004-22.506.011-33.759-.015-1.57-.005-3.219.25-4.599-.85-.525-2.181.856-3.05 2.585-3.566 1.284-.384 2.641-.264 3.97-.266 10.825-.014 21.649-.005 32.473.003 1.746 0 3.196-.256 3.67-2.227 1.972-3.293 1.135-6.875.94-10.347-.085-1.549-1.672-1.328-2.78-1.34-7.45-.08-14.903 0-22.355-.05-2.207-.016-4.439.287-6.612-.359-.64-.27-1.091-.751-.778-1.43 1.058-2.29 1.83-4.806 4.375-6.032"/>
            <path fill="#F6D6B5" d="M95.9 76.414c-.016 3.62-.016 3.622-3.598 3.622-15.826 0-31.652.003-47.477-.005-1.648 0-3.328-.125-3.746 2.046-.985 1.258-2.42.914-3.72.997-1.922.125-3.888-.203-6.31.478 1.49 1.09 2.741.765 3.887.879 1.38.136 2.913-.315 3.992 1l-5.372 8.386c-3.843.043-7.693-.036-11.526.175-2.09.115-2.03-.963-2.027-2.408.028-11.415.015-22.83.015-34.245 0-5.752.024-11.504-.017-17.255-.01-1.297.042-2.095 1.788-2.084 15.384.093 30.768.093 46.153.12l-4.29 6.73c-1.131 1.382-2.746 1.107-4.221 1.115-8.936.047-17.874 0-26.81.032-3.708.012-3.922.227-3.93 3.939-.021 7.305-.447 6.724 6.839 6.728 18.498.016 36.996-.005 55.495.023 1.657.003 3.434-.35 4.85.956.555 2.792-.762 3.352-3.382 3.324-11.935-.13-23.871-.009-35.806-.102-2.185-.017-3.6.629-4.328 2.657-1.091 1.238-2.596 1.033-3.995 1.047-5.362.057-10.725-.02-16.087.042-3.186.036-3.516.388-3.585 3.527a71.334 71.334 0 0 0 .036 4.773c.068 1.484.846 2.257 2.357 2.318a86.31 86.31 0 0 0 3.484.05c18.858.002 37.715-.014 56.573.023 1.64.002 3.447-.4 4.757 1.112"/>
            <path fill="#E34E40" d="M94.328 58c-1.054-.063-2.109-.18-3.162-.18-20.263-.012-40.525-.047-60.788.04-2.483.011-3.59-.6-3.345-3.296.201-2.229.141-4.497.013-6.738-.122-2.128.684-2.786 2.767-2.768 10.44.09 20.882.04 31.322.036.44 0 .88-.06 1.32-.094 10.176.033 20.353.135 30.527.048 2.332-.022 3.173.652 2.995 3.046-.187 2.504-.115 5.036-.012 7.55.054 1.326-.469 2.018-1.637 2.356M94.394 76c-15.492-.033-30.985-.07-46.478-.097-6.02-.011-12.043-.067-18.063.035-2.058.033-2.924-.648-2.818-2.764.113-2.224.157-4.469-.01-6.687-.19-2.532.658-3.47 3.292-3.424 6.988.125 13.981-.024 20.974-.063 13.641.04 27.285.082 40.927.12 3.759.01 3.759.004 3.76 3.864 0 2.233-.049 4.466.02 6.695.036 1.243-.289 2.094-1.604 2.321M37.958 85c-2.285-.024-4.57-.064-6.854-.063-1.076 0-2.03-.226-2.1-1.32-.08-1.249.905-1.543 2.106-1.547 2.99-.007 5.978-.045 8.966-.07 5.102.025 10.204.055 15.307.073 1.163.004 2.53-.103 2.613 1.315.095 1.61-1.349 1.542-2.618 1.545-5.806.016-11.613.044-17.42.067M81.229 84.993c-3.959 0-7.916-.01-11.874.007-1.127.005-2.277-.072-2.351-1.385-.083-1.493 1.125-1.617 2.366-1.614 8.093.011 16.184.01 24.276-.001 1.126-.002 2.277.072 2.35 1.386.083 1.492-1.124 1.619-2.366 1.614-4.134-.018-8.269-.007-12.401-.007"/>
            <path fill="#F27062" d="M62.062 53.922c-9.743 0-19.487-.07-29.228.051-2.29.028-3.08-.697-2.77-2.834.088-.6.082-1.234.002-1.837-.234-1.744.525-2.287 2.27-2.253 4.646.092 9.296.03 13.944.03 14.927 0 29.855.098 44.78-.078 3.11-.037 2.901 1.46 2.934 3.515.032 2.131.057 3.547-2.973 3.482-9.65-.206-19.305-.076-28.96-.076M62.072 72.95c-9.733 0-19.467-.062-29.198.05-2.164.023-2.957-.437-2.867-2.676.168-4.263.03-4.268 4.396-4.268 18.75 0 37.502.047 56.253-.056 2.517-.014 3.707.517 3.247 3.098a4.895 4.895 0 0 0-.002 1.553c.265 1.805-.47 2.356-2.364 2.34-9.821-.087-19.644-.04-29.465-.04"/>
            <mask id="d" fill="#fff">
                <use xlink:href="#c"/>
            </mask>
            <path fill="#EAF5F5" d="M79 32h14v-6H79z" mask="url(#d)"/>
            <path fill="#00AE9E" d="M73.402 32C72.63 32 72 31.325 72 30.5c0-.824.63-.799 1.402-.799h5.196c.771 0 1.53.325 1.53 1.15 0 .824-.759 1.149-1.53 1.149h-5.196zM90.402 32c-.771 0-1.46-.325-1.46-1.15 0-.824.689-1.149 1.46-1.149h5.196c.771 0 1.53.325 1.53 1.15 0 .824-.759 1.149-1.53 1.149h-5.196zM84.453 32h-.906C82.696 32 82 31.325 82 30.5c0-.824.696-1.5 1.547-1.5h.906c.851 0 1.547.676 1.547 1.5 0 .825-.696 1.5-1.547 1.5" mask="url(#d)"/>
        </g>
    </g>
</svg>
