<svg xmlns="http://www.w3.org/2000/svg" xmlns:xlink="http://www.w3.org/1999/xlink" width="97" height="97" viewBox="0 0 97 97">
    <defs>
        <circle id="b" cx="42.5" cy="42.5" r="42.5"/>
        <filter id="a" width="123.5%" height="123.5%" x="-11.8%" y="-9.4%" filterUnits="objectBoundingBox">
            <feOffset dy="2" in="SourceAlpha" result="shadowOffsetOuter1"/>
            <feGaussianBlur in="shadowOffsetOuter1" result="shadowBlurOuter1" stdDeviation="3"/>
            <feColorMatrix in="shadowBlurOuter1" values="0 0 0 0 0.184313725 0 0 0 0 0.325490196 0 0 0 0 0.592156863 0 0 0 0.2 0"/>
        </filter>
    </defs>
    <g fill="none" fill-rule="evenodd">
        <g transform="translate(6 4)">
            <use fill="#000" filter="url(#a)" xlink:href="#b"/>
            <use fill="#FFF" xlink:href="#b"/>
        </g>
        <path fill="#FFAE00" d="M48.5 69L24 40.107 34.613 25.51 48.5 24l13.887 1.51L73 40.107z"/>
        <path fill="#EC6C00" d="M48.5 69L24 40.107h49z"/>
        <path fill="#FFAE00" d="M48.5 69L33.919 40.107h29.162z"/>
        <path fill="#FFEFB4" d="M48.5 24L33.919 40.107h29.162z"/>
        <path fill="#FFAE00" d="M34.613 25.51l-5.455 7.35L24 40.106h10.018zM62.387 25.51l5.455 7.35L73 40.106H62.982z"/>
        <path fill="#FED305" d="M34.613 25.51l-.694 14.597L48.5 24zM62.387 25.51l.694 14.597L48.5 24z"/>
    </g>
</svg>
