<svg xmlns="http://www.w3.org/2000/svg" xmlns:xlink="http://www.w3.org/1999/xlink" width="97" height="97" viewBox="0 0 97 97">
    <defs>
        <circle id="b" cx="42.5" cy="42.5" r="42.5"/>
        <filter id="a" width="123.5%" height="123.5%" x="-11.8%" y="-9.4%" filterUnits="objectBoundingBox">
            <feOffset dy="2" in="SourceAlpha" result="shadowOffsetOuter1"/>
            <feGaussianBlur in="shadowOffsetOuter1" result="shadowBlurOuter1" stdDeviation="3"/>
            <feColorMatrix in="shadowBlurOuter1" values="0 0 0 0 0.184313725 0 0 0 0 0.325490196 0 0 0 0 0.592156863 0 0 0 0.2 0"/>
        </filter>
    </defs>
    <g fill="none" fill-rule="evenodd">
        <g transform="translate(6 4)">
            <use fill="#000" filter="url(#a)" xlink:href="#b"/>
            <use fill="#FFF" xlink:href="#b"/>
        </g>
        <g fill-rule="nonzero">
            <path fill="#ECB32D" d="M55.104 25.858a4.191 4.191 0 0 0-5.234-2.663 4.167 4.167 0 0 0-2.675 5.213l10.736 32.879c.726 2.016 2.942 3.158 5.043 2.55 2.216-.648 3.553-2.969 2.827-5.1 0-.076-10.697-32.879-10.697-32.879z"/>
            <path fill="#63C1A0" d="M39.104 31.858a4.191 4.191 0 0 0-5.234-2.663 4.167 4.167 0 0 0-2.675 5.213l10.736 32.879c.726 2.016 2.942 3.158 5.043 2.55 2.216-.648 3.553-2.969 2.827-5.1 0-.076-10.697-32.879-10.697-32.879z"/>
            <path fill="#E01A59" d="M69.144 53.088a4.182 4.182 0 0 0 2.662-5.224 4.164 4.164 0 0 0-5.209-2.67L33.711 55.948c-2.015.725-3.156 2.936-2.547 5.033.646 2.212 2.965 3.546 5.094 2.822.076 0 32.886-10.714 32.886-10.714z"/>
            <path fill="#331433" d="M40.445 62c2.044-.657 4.708-1.533 7.555-2.445-.657-2.044-1.533-4.708-2.445-7.555L38 54.445 40.445 62z"/>
            <path fill="#D62027" d="M56.445 57c2.847-.912 5.511-1.788 7.555-2.445-.657-2.044-1.533-4.708-2.445-7.555L54 49.445 56.445 57z"/>
            <path fill="#89D3DF" d="M63.142 37.104a4.191 4.191 0 0 0 2.663-5.234 4.167 4.167 0 0 0-5.213-2.675L27.713 39.931c-2.016.726-3.158 2.942-2.55 5.043.648 2.216 2.969 3.553 5.1 2.827.076 0 32.879-10.697 32.879-10.697z"/>
            <path fill="#258B74" d="M34.445 46c2.044-.657 4.708-1.533 7.555-2.445-.912-2.847-1.788-5.511-2.445-7.555L32 38.445 34.445 46z"/>
            <path fill="#819C3C" d="M51.445 40c2.847-.912 5.511-1.788 7.555-2.445-.912-2.847-1.788-5.511-2.445-7.555L49 32.445 51.445 40z"/>
        </g>
    </g>
</svg>
