<svg xmlns="http://www.w3.org/2000/svg" width="154" height="150" viewBox="0 0 154 150">
    <g fill="none" fill-rule="evenodd">
        <circle cx="75" cy="75" r="75" fill="#EAF5F5"/>
        <path fill="#C1E5E5" d="M56.353 121.93c5.682 1.854 62.981.64 81.79 0 11.815.089 14.475.64 15.397 1.854.915 1.2-1.364 5.82-11.415 6.611-73.113 5.763-101.704 2.941-85.772-8.465z" style="mix-blend-mode:multiply"/>
        <path fill="#C6EAEA" d="M32.456 23.061c-.046 1.275-.544 2.262-1.982 2.367-1.704.125-2.382-.885-2.403-2.294-.016-1.028.396-2.028 1.627-2.078 1.427-.057 2.594.547 2.758 2.005M73.179 11c1.406.155 2.159.883 2.204 2.119.041 1.149-.295 2.305-1.838 2.266-1.414-.035-2.609-.688-2.542-2.24.054-1.239.777-1.97 2.176-2.145M51.754 17.792c-.68 1.328-1.543 2.463-3.14 2.38-1.421-.077-2.319-1-2.086-2.431.271-1.67 1.593-2.078 3.143-1.92 1.23.124 1.953.793 2.083 1.971M35.088 41.46c-.39 1.298-1.143 2.374-2.613 2.4-1.503.025-1.815-1.152-1.769-2.288.05-1.22.78-2.064 2.157-2.097 1.407-.034 2.044.837 2.225 1.985" style="mix-blend-mode:multiply"/>
        <path fill="#FBF1F1" d="M88.832 38.605c.758 2.324 1.336 4.698-1.254 6.276-1.883 1.148-3.753 1.04-5.122-.986 1.181-2.865 2.59-5.466 6.376-5.29"/>
        <path fill="#F6D6B5" d="M52.316 24.05v93.01h70.007V22.524z"/>
        <g>
            <path fill="#FEFDFD" fill-rule="nonzero" d="M86.5 58C71.888 58 60 69.888 60 84.5S71.888 111 86.5 111 113 99.112 113 84.5 101.112 58 86.5 58zM87 28c-7.168 0-13 5.832-13 13s5.832 13 13 13 13-5.832 13-13-5.832-13-13-13z"/>
            <path fill="#F3CFAA" d="M59 117h8v8h-8zM109 117h8v8h-8z"/>
            <path fill="#00AE9E" fill-rule="nonzero" d="M121.847 20.01a2.174 2.174 0 0 0-.216-.01h-8.75a2.1 2.1 0 0 0-2.112 2.09 2.1 2.1 0 0 0 2.112 2.09h8.75c.075 0 .146.07.146.144v90.618c0 .073-.071.143-.146.143H54.37a.152.152 0 0 1-.146-.143V24.324c0-.074.071-.144.146-.144h41.837a2.1 2.1 0 0 0 2.111-2.09A2.1 2.1 0 0 0 96.206 20H54.369c-.024 0-.046.003-.07.004-.048.001-.098.002-.146.007-2.308.112-4.153 2-4.153 4.313v90.618c0 2.383 1.96 4.323 4.369 4.323h1.541v5.645c0 1.154.946 2.09 2.112 2.09h8.767a2.1 2.1 0 0 0 2.112-2.09v-5.645h38.198v5.645c0 1.154.946 2.09 2.112 2.09h8.767a2.1 2.1 0 0 0 2.112-2.09v-5.645h1.541c2.409 0 4.369-1.94 4.369-4.323V24.324c0-2.312-1.845-4.2-4.153-4.313zm-57.17 102.81h-4.543v-3.555h4.544v3.555zm51.19 0h-4.545v-3.555h4.545v3.555z"/>
            <path fill="#EFC194" fill-rule="nonzero" d="M58.5 28a2.505 2.505 0 0 0-2.5 2.5c0 1.377 1.123 2.5 2.5 2.5s2.5-1.123 2.5-2.5-1.123-2.5-2.5-2.5zM115.5 28a2.505 2.505 0 0 0-2.5 2.5c0 1.377 1.123 2.5 2.5 2.5s2.5-1.123 2.5-2.5-1.123-2.5-2.5-2.5zM58.5 107a2.505 2.505 0 0 0-2.5 2.5c0 1.377 1.123 2.5 2.5 2.5s2.5-1.123 2.5-2.5-1.123-2.5-2.5-2.5zM115.5 107a2.505 2.505 0 0 0-2.5 2.5c0 1.377 1.123 2.5 2.5 2.5s2.5-1.123 2.5-2.5-1.123-2.5-2.5-2.5z"/>
            <path fill="#F27062" fill-rule="nonzero" d="M86.5 58C71.888 58 60 69.888 60 84.5S71.888 111 86.5 111 113 99.112 113 84.5 101.112 58 86.5 58zm0 48.88c-12.34 0-22.38-10.04-22.38-22.38S74.16 62.12 86.5 62.12s22.38 10.04 22.38 22.38-10.04 22.38-22.38 22.38z"/>
            <path fill="#F27062" fill-rule="nonzero" d="M97.524 70.689a2.042 2.042 0 0 0-2.905.268c-.73.888-.611 2.209.264 2.95 3.172 2.683 4.991 6.627 4.991 10.82 0 7.766-6.224 14.084-13.874 14.084s-13.874-6.318-13.874-14.085c0-6.368 4.233-11.964 10.293-13.608 1.1-.298 1.755-1.446 1.46-2.564-.293-1.117-1.425-1.781-2.525-1.482C73.492 69.204 68 76.464 68 84.726 68 94.802 76.075 103 86 103s18-8.198 18-18.274c0-5.438-2.36-10.555-6.476-14.037zM86.5 28C79.056 28 73 34.056 73 41.5S79.056 55 86.5 55 100 48.944 100 41.5 93.944 28 86.5 28zm0 22.759c-5.105 0-9.259-4.154-9.259-9.26 0-5.104 4.154-9.258 9.259-9.258s9.259 4.154 9.259 9.259-4.154 9.259-9.26 9.259z"/>
            <path fill="#00AE9E" fill-rule="nonzero" d="M86.5 78a6.507 6.507 0 0 0-6.5 6.5c0 3.584 2.916 6.5 6.5 6.5s6.5-2.916 6.5-6.5-2.916-6.5-6.5-6.5zm0 8.857a2.36 2.36 0 0 1-2.357-2.357 2.36 2.36 0 0 1 2.357-2.357 2.36 2.36 0 0 1 2.357 2.357 2.36 2.36 0 0 1-2.357 2.357z"/>
            <path fill="#F27062" fill-rule="nonzero" d="M86.5 78a6.507 6.507 0 0 0-6.5 6.5c0 3.584 2.916 6.5 6.5 6.5s6.5-2.916 6.5-6.5-2.916-6.5-6.5-6.5zm0 8.857a2.36 2.36 0 0 1-2.357-2.357 2.36 2.36 0 0 1 2.357-2.357 2.36 2.36 0 0 1 2.357 2.357 2.36 2.36 0 0 1-2.357 2.357zM86.5 35a6.507 6.507 0 0 0-6.5 6.5c0 3.584 2.916 6.5 6.5 6.5s6.5-2.916 6.5-6.5-2.916-6.5-6.5-6.5zm0 8.857a2.36 2.36 0 0 1-2.357-2.357 2.36 2.36 0 0 1 2.357-2.357 2.36 2.36 0 0 1 2.357 2.357 2.36 2.36 0 0 1-2.357 2.357z"/>
            <path fill="#00AE9E" fill-rule="nonzero" d="M40.713 67h-5.426C34.024 67 33 67.895 33 69c0 1.104 1.024 2 2.287 2h5.426C41.976 71 43 70.105 43 69s-1.024-2-2.287-2zM45.836 86.486c-.454-1.228-1.71-1.81-2.805-1.302l-4.705 2.185c-1.096.508-1.616 1.916-1.162 3.144.343.927 1.142 1.487 1.984 1.487.274 0 .552-.06.82-.184l4.706-2.185c1.096-.509 1.616-1.917 1.162-3.145zM134.674 87.369l-4.705-2.185c-1.095-.509-2.351.074-2.805 1.303-.454 1.228.066 2.636 1.162 3.144l4.705 2.185c.269.125.547.184.82.184.843 0 1.642-.56 1.985-1.487.454-1.228-.067-2.636-1.162-3.144zM137.713 68h-5.426c-1.263 0-2.287.896-2.287 2 0 1.105 1.024 2 2.287 2h5.426c1.263 0 2.287-.895 2.287-2 0-1.104-1.024-2-2.287-2zM135.836 48.486c-.454-1.228-1.71-1.81-2.805-1.302l-4.705 2.184c-1.095.509-1.616 1.917-1.162 3.145.343.927 1.142 1.487 1.984 1.487.274 0 .552-.06.82-.184l4.706-2.185c1.096-.508 1.616-1.916 1.162-3.145zM44.674 49.369l-4.705-2.185c-1.095-.509-2.351.074-2.805 1.302-.454 1.229.067 2.637 1.162 3.145l4.705 2.185c.269.125.547.184.82.184.843 0 1.643-.56 1.985-1.487.454-1.228-.067-2.636-1.162-3.144z"/>
            <path fill="#F27062" fill-rule="nonzero" d="M90.547 67.082a1.984 1.984 0 0 0-2.476 1.387 1.991 1.991 0 0 0 1.42 2.46 1.987 1.987 0 0 0 2.438-1.398 1.992 1.992 0 0 0-1.382-2.449z"/>
            <path fill="#00AE9E" fill-rule="nonzero" d="M104.558 20h-.116c-1.348 0-2.442.895-2.442 2s1.094 2 2.442 2h.116c1.348 0 2.442-.895 2.442-2s-1.094-2-2.442-2z"/>
        </g>
    </g>
</svg>
