<?xml version="1.0" encoding="UTF-8" standalone="no"?>
<svg width="27px" height="27px" viewBox="0 0 27 27" version="1.1" xmlns="http://www.w3.org/2000/svg"
     xmlns:xlink="http://www.w3.org/1999/xlink">
    <!-- Generator: Sketch 39.1 (31720) - http://www.bohemiancoding.com/sketch -->
    <title>checkbox-checked</title>
    <desc>Created with Sketch.</desc>
    <defs>
        <rect id="path-1" x="0" y="0" width="27" height="27"></rect>
        <mask id="mask-2" maskContentUnits="userSpaceOnUse" maskUnits="objectBoundingBox" x="0" y="0" width="27"
              height="27" fill="white">
            <use xlink:href="#path-1"></use>
        </mask>
    </defs>
    <g id="Page-1" stroke="none" stroke-width="1" fill="none" fill-rule="evenodd">
        <g id="Retro---Desktop" transform="translate(-371.000000, -841.000000)">
            <g id="checkbox-checked" transform="translate(371.000000, 841.000000)">
                <use id="checkbox-empty" stroke="#F2EEE2" mask="url(#mask-2)" stroke-width="8"
                     xlink:href="#path-1"></use>
                <path d="M22,9.54451613 C22,9.27032258 21.8903226,8.99612903 21.6929032,8.79870968 L20.2012903,7.30709677 C20.003871,7.10967742 19.7296774,7 19.4554839,7 C19.1812903,7 18.9070968,7.10967742 18.7096774,7.30709677 L11.5148387,14.5129032 L8.29032258,11.2774194 C8.09290323,11.08 7.81870968,10.9703226 7.54451613,10.9703226 C7.27032258,10.9703226 6.99612903,11.08 6.79870968,11.2774194 L5.30709677,12.7690323 C5.10967742,12.9664516 5,13.2406452 5,13.5148387 C5,13.7890323 5.10967742,14.0632258 5.30709677,14.2606452 L9.27741935,18.2309677 L10.7690323,19.7225806 C10.9664516,19.92 11.2406452,20.0296774 11.5148387,20.0296774 C11.7890323,20.0296774 12.0632258,19.92 12.2606452,19.7225806 L13.7522581,18.2309677 L21.6929032,10.2903226 C21.8903226,10.0929032 22,9.81870968 22,9.54451613 L22,9.54451613 Z"
                      id="-copy-3" fill="#51C0B1"></path>
            </g>
        </g>
    </g>
</svg>