<?xml version="1.0" encoding="UTF-8" standalone="no"?>
<svg width="68px" height="79px" viewBox="0 0 68 79" version="1.1" xmlns="http://www.w3.org/2000/svg"
>
    <!-- Generator: Sketch 42 (36781) - http://www.bohemiancoding.com/sketch -->
    <title>face-dead</title>
    <desc>Created with Sketch.</desc>
    <defs></defs>
    <g id="Web" stroke="none" stroke-width="1" fill="none" fill-rule="evenodd">
        <g id="face-dead"
           transform="translate(32.897658, 39.885356) rotate(17.000000) translate(-32.897658, -39.885356) translate(0.397658, 2.885356)">
            <g id="Capa_1">
                <g id="Group">
                    <path d="M45.2773922,20.7471988 C31.7596854,18.6670717 26.5599915,25.7385056 26.5599915,25.7385056 C16.8893345,24.8026356 12.8338977,21.9950255 12.8338977,21.9950255 C10.7425402,24.4257919 8.34920852,25.6836012 6.59476417,26.3299755 L6.59476417,41.9602529 L6.59476417,63.1733069 C6.59476417,65.9185257 8.84085225,68.1646138 11.586071,68.1646138 L54.0121792,68.1646138 C56.7573979,68.1646138 59.003486,65.9185257 59.003486,63.1733069 L59.003486,41.9602529 L59.003486,23.2428522 C48.9173027,29.1700291 45.2773922,20.7471988 45.2773922,20.7471988 L45.2773922,20.7471988 Z"
                          id="Shape" fill="#B6B6B6"></path>
                    <path d="M17.6664916,43.2330361 C17.3876683,43.2330361 17.108845,43.1262994 16.8964601,42.9139153 C16.4706012,42.4880578 16.4706012,41.7997152 16.8964601,41.3738577 L26.1379268,32.1324232 C26.5637858,31.7065657 27.2521307,31.7065657 27.6779897,32.1324232 C28.1038487,32.5582807 28.1038487,33.2466232 27.6779897,33.6724807 L18.436523,42.9139153 C18.2241381,43.1262994 17.9453149,43.2330361 17.6664916,43.2330361 L17.6664916,43.2330361 Z"
                          id="Shape" fill="#FFFFFF"></path>
                    <path d="M26.9092061,43.2330361 C26.6303828,43.2330361 26.3515595,43.1262994 26.1391746,42.9139153 L16.897708,33.6724807 C16.471849,33.2466232 16.471849,32.5582807 16.897708,32.1324232 C17.3235669,31.7065657 18.0119119,31.7065657 18.4377709,32.1324232 L27.6792375,41.3738577 C28.1050965,41.7997152 28.1050965,42.4880578 27.6792375,42.9139153 C27.4657634,43.1262994 27.1880293,43.2330361 26.9092061,43.2330361 L26.9092061,43.2330361 Z"
                          id="Shape" fill="#FFFFFF"></path>
                    <path d="M38.3362027,42.9139153 C37.9103438,42.4880578 37.9103438,41.7997152 38.3362027,41.3738577 L47.5776694,32.1324232 C48.0035284,31.7065657 48.6918733,31.7065657 49.1177323,32.1324232 C49.5435913,32.5582807 49.5435913,33.2466232 49.1177323,33.6724807 L39.8762656,42.9139153 C39.6638807,43.1262994 39.3850575,43.2330361 39.1062342,43.2330361 C38.8274109,43.2330361 38.5485876,43.1262994 38.3362027,42.9139153 Z"
                          id="Shape" fill="#FFFFFF"></path>
                    <path d="M48.3477008,43.2330361 C48.0688776,43.2330361 47.7900543,43.1262994 47.5776694,42.9139153 L38.3362027,33.6724807 C37.9103438,33.2466232 37.9103438,32.5582807 38.3362027,32.1324232 C38.7620617,31.7065657 39.4504067,31.7065657 39.8762656,32.1324232 L49.1177323,41.3738577 C49.5435913,41.7997152 49.5435913,42.4880578 49.1177323,42.9139153 C48.9053474,43.1262994 48.6265241,43.2330361 48.3477008,43.2330361 L48.3477008,43.2330361 Z"
                          id="Shape" fill="#FFFFFF"></path>
                    <path d="M35.2947785,49.4721697 L35.2947785,59.2064658 C35.2947785,61.9516846 37.5408666,64.1977727 40.2860854,64.1977727 L41.5339121,64.1977727 C44.2791308,64.1977727 46.5252189,61.9516846 46.5252189,59.2064658 L46.5252189,49.4721697 C44.3939309,49.498374 37.5570883,49.4721697 35.2947785,49.4721697 L35.2947785,49.4721697 Z"
                          id="Shape" fill="#CC4B4C"></path>
                    <path d="M40.9524248,57.721552 C40.2623766,57.721552 39.7045981,57.1637735 39.7045981,56.4737253 L39.7045981,56.2678339 C39.7058459,53.0709019 39.6160024,51.0955922 39.4363154,50.384331 C39.1929892,50.1572265 39.0395065,49.8327916 39.0395065,49.4721697 C39.0395065,48.7821215 39.597285,48.2243429 40.2873332,48.2243429 C41.8982775,48.2243429 42.0193167,50.3094614 42.1166471,51.9840448 C42.2014994,53.4477456 42.2002515,55.1460377 42.2002515,56.2703296 L42.2002515,56.4749732 C42.2002515,57.1637735 41.6412252,57.721552 40.9524248,57.721552 L40.9524248,57.721552 Z"
                          id="Shape" fill="#C03A2B"></path>
                    <path d="M47.7730456,50.7199964 L20.320858,50.7199964 C19.6308098,50.7199964 19.0730313,50.1622178 19.0730313,49.4721697 C19.0730313,48.7821215 19.6308098,48.2243429 20.320858,48.2243429 L47.7730456,48.2243429 C48.4630938,48.2243429 49.0208723,48.7821215 49.0208723,49.4721697 C49.0208723,50.1622178 48.4630938,50.7199964 47.7730456,50.7199964 L47.7730456,50.7199964 Z"
                          id="Shape" fill="#444D67"></path>
                    <path d="M47.3924585,73.1559206 L18.2070395,73.1559206 C17.3073565,73.1559206 16.5786257,72.4271898 16.5786257,71.5275068 L16.5786257,68.1646138 L49.0221202,68.1646138 L49.0221202,71.5275068 C49.0208723,72.425942 48.2921415,73.1559206 47.3924585,73.1559206 L47.3924585,73.1559206 Z"
                          id="Shape" fill="#A1A5BA"></path>
                    <path d="M63.9947929,23.2678087 C63.2211403,17.6688103 60.767913,13.9340649 58.4157596,11.9949422 C57.2727504,11.0528331 56.620137,9.68396716 56.2507803,8.25021427 C55.2537668,4.37945581 51.586404,2.31430261 47.7730456,2.05475465 C45.343527,1.8887937 43.2234694,2.65870278 40.7989421,3.62826413 C40.03652,3.93273385 39.1118804,3.61578587 38.8223846,2.84712461 C37.3324795,-1.10973389 28.7973448,0.919232344 22.2899285,7.52647478 C21.9779719,7.84342276 21.4364151,7.68245312 21.3740237,7.24197029 C21.1581497,5.70714343 21.0458453,2.93946379 22.8152636,2.05475465 C22.8152636,2.05475465 17.3160913,-1.03860777 12.6005541,3.08545951 C11.1630578,4.34326884 10.2234442,6.07275666 9.74427878,7.92078802 C9.62947873,8.3637665 9.51218302,8.83669282 9.4086134,9.30213219 C9.1191176,10.5911372 7.46574721,11.0303722 6.61597722,10.0171369 C6.6010033,9.99717166 6.58353373,9.97595861 6.56731198,9.95474556 C5.77119854,8.98393638 4.24510647,9.13492341 3.74847144,10.2879153 C1.10183099,16.4297184 -3.00227107,30.2019818 6.59476417,41.9852094 L6.59476417,26.354932 C8.34920852,25.7085578 10.7425402,24.4507485 12.8338977,22.019982 C12.8338977,22.019982 16.8893345,24.8275921 26.5599915,25.7634622 C26.5599915,25.7634622 31.7596854,18.6920282 45.2773922,20.7721553 C45.2773922,20.7721553 48.9173027,29.1949856 59.003486,23.2678087 L59.003486,41.9852094 C59.003486,41.9852094 65.6831024,35.4777931 63.9947929,23.2678087 L63.9947929,23.2678087 Z"
                          id="Shape" fill="#434343"></path>
                </g>
            </g>
        </g>
    </g>
</svg>