<?xml version="1.0" encoding="UTF-8" standalone="no"?>
<svg width="58px" height="71px" viewBox="0 0 58 71" version="1.1" xmlns="http://www.w3.org/2000/svg"
     xmlns:xlink="http://www.w3.org/1999/xlink">
    <!-- Generator: Sketch 39.1 (31720) - http://www.bohemiancoding.com/sketch -->
    <title>happy</title>
    <desc>Created with Sketch.</desc>
    <defs>
        <path d="M47.7815294,16.563865 L48.6160677,16.563865 C50.5517795,16.563865 52.120984,18.1868962 52.120984,20.1866055 L52.120984,30.5282565 C52.120984,30.7773503 52.0965868,31.0205724 52.0501411,31.2555239 L52.0501411,59.9818714 C52.0501411,62.3299181 50.1831967,64.2448688 47.9032459,64.2448688 L43.7602347,64.2448688 L43.7602347,67.0355815 C43.7602347,67.7801121 43.1594981,68.3777976 42.4111667,68.3777976 L18.1862037,68.3777976 C17.4365777,68.3777976 16.835841,67.7801121 16.835841,67.0355815 L16.835841,64.2448688 L12.6876511,64.2448688 C10.4128791,64.2448688 8.54593467,62.3299181 8.54593467,59.9818714 L8.54593467,28.5044532 C8.56941216,28.4955605 8.59302756,28.4865324 8.6167776,28.4773669 L8.6167776,20.1866055 C8.6167776,18.1858211 10.1908166,16.563865 12.1216939,16.563865 L12.1770539,16.563865 L12.1770539,8.37779758 L14.6961902,8.37779758 L14.6961902,16.563865 L45.2623931,16.563865 L45.2623931,8.37779758 L47.7815294,8.37779758 L47.7815294,16.563865 L47.7815294,16.563865 Z"
              id="path-1"></path>
        <mask id="mask-2" maskContentUnits="userSpaceOnUse" maskUnits="objectBoundingBox" x="-2" y="-2"
              width="47.5750493" height="64">
            <rect x="6.54593467" y="6.37779758" width="47.5750493" height="64" fill="white"></rect>
            <use xlink:href="#path-1" fill="black"></use>
        </mask>
    </defs>
    <g id="main-heads" stroke="none" stroke-width="1" fill="none" fill-rule="evenodd">
        <g id="happy">
            <g id="Combined-Shape">
                <use fill="#46AA9C" fill-rule="evenodd" xlink:href="#path-1"></use>
                <use stroke="#46AA9C" mask="url(#mask-2)" stroke-width="4" xlink:href="#path-1"></use>
            </g>
            <path d="M51.8730872,30.8777263 C51.9195329,30.6427748 51.9439302,30.3995528 51.9439302,30.1504589 L51.9439302,19.8088079 C51.9439302,17.8090986 50.3747257,16.1860674 48.4390138,16.1860674 L11.9446401,16.1860674 C10.0137628,16.1860674 8.43972374,17.8080235 8.43972374,19.8088079 L8.43972374,28.0995693 C8.4159737,28.1087348 8.3923583,28.1177629 8.36888081,28.1266556 L8.36888081,59.6040738 C8.36888081,61.9521205 10.2358252,63.8670712 12.5105973,63.8670712 L47.726192,63.8670712 C50.0061428,63.8670712 51.8730872,61.9521205 51.8730872,59.6040738 L51.8730872,30.8777263 L51.8730872,30.8777263 Z"
                  id="Combined-Shape" fill="#D3D5D8"></path>
            <rect id="Rectangle-31" fill="#BEC2CD" x="30.120984" y="16.1306851" width="22" height="48.1032694"
                  rx="4"></rect>
            <path d="M23.0248049,53.0056526 C25.1847632,55.322606 27.5815087,56.5021035 30.1251421,56.5247677 C33.6863431,56.555263 36.7489674,54.3499266 38.1056328,53.1958214 L37.3655537,52.6440738 C36.9111171,52.3014352 36.8140153,51.6573775 37.1584031,51.2000966 C37.5027909,50.7466801 38.1553152,50.656512 38.6097517,50.9939982 L41.5072701,53.1580318 C41.9681801,53.4993823 42.0588085,54.1485924 41.7157154,54.602009 C41.5124489,54.8738013 41.2043124,55.0142059 40.8858185,55.0142059 C40.6734891,55.0142059 40.4559811,54.9433595 40.2682509,54.8081074 L39.8009086,54.4596921 C38.4373967,55.6920682 34.7032845,58.6263041 30.110703,58.5856805 C29.5839502,58.5844139 29.0682878,58.5379536 28.5593449,58.457345 C25.9967275,58.0514663 23.6183474,56.680989 21.4703791,54.3688765 C21.4328287,54.3286481 21.3991359,54.2862378 21.3692813,54.2420929 L20.6119279,54.8077281 C20.4241977,54.9481326 20.2066896,55.0138265 19.9891815,55.0138265 C19.6758663,55.0138265 19.3625511,54.873422 19.1592846,54.6016296 C18.8161915,54.1482131 18.9068199,53.5041555 19.3677299,53.1628049 L22.2652483,50.9936188 C22.7248636,50.6561326 23.3722091,50.7475888 23.7165969,51.1997173 C24.0609847,51.6582863 23.9638829,52.3023439 23.5094463,52.6436945 L23.0248049,53.0056526 L23.0248049,53.0056526 Z"
                  id="Combined-Shape" fill="#444D66"></path>
            <path d="M45.6572758,40.5277027 C45.6572758,43.9437844 42.8762796,46.711944 39.4414644,46.711944 C36.0079439,46.711944 33.225653,43.9437844 33.225653,40.5277027 C33.225653,37.1116211 36.0079439,34.3434614 39.4414644,34.3434614 C42.8762796,34.3434614 45.6572758,37.1116211 45.6572758,40.5277027 L45.6572758,40.5277027 Z"
                  id="Fill-8" fill="#FFFFFF"></path>
            <path d="M42.5155594,41.5277027 C42.5155594,42.6651085 41.5846765,43.5912633 40.4414644,43.5912633 C39.2982523,43.5912633 38.3686641,42.6651085 38.3686641,41.5277027 C38.3686641,40.390297 39.2982523,39.4641421 40.4414644,39.4641421 C41.5846765,39.4641421 42.5155594,40.390297 42.5155594,41.5277027 L42.5155594,41.5277027 Z"
                  id="Fill-9" fill="#50E3C2"></path>
            <path d="M27.2128314,40.5277027 C27.2128314,43.9437844 24.4318351,46.711944 20.99702,46.711944 C17.5634995,46.711944 14.7812086,43.9437844 14.7812086,40.5277027 C14.7812086,37.1116211 17.5634995,34.3434614 20.99702,34.3434614 C24.4318351,34.3434614 27.2128314,37.1116211 27.2128314,40.5277027 L27.2128314,40.5277027 Z"
                  id="Fill-8" fill="#FFFFFF"></path>
            <path d="M24.0711149,41.5277027 C24.0711149,42.6651085 23.1402321,43.5912633 21.99702,43.5912633 C20.8538078,43.5912633 19.9242197,42.6651085 19.9242197,41.5277027 C19.9242197,40.390297 20.8538078,39.4641421 21.99702,39.4641421 C23.1402321,39.4641421 24.0711149,40.390297 24.0711149,41.5277027 L24.0711149,41.5277027 Z"
                  id="Fill-9" fill="#50E3C2"></path>
            <path d="M42.2341129,68 L18.0091499,68 C17.2595238,68 16.6587872,67.4023145 16.6587872,66.6577839 L16.6587872,63.8793193 L43.5831809,63.8793193 L43.5831809,66.6577839 C43.5831809,67.4023145 42.9824442,68 42.2341129,68 L42.2341129,68 Z"
                  id="Fill-10" fill="#AFB2BE"></path>
            <ellipse id="Oval-6" fill="#D3D4D8" cx="21.2399691" cy="46.4151609" rx="6.66049383"
                     ry="1.55921053"></ellipse>
            <ellipse id="Oval-6" fill="#BEC1CD" cx="39.6844136" cy="46.4151609" rx="6.66049383"
                     ry="1.55921053"></ellipse>
            <path d="M14.1822475,30.7736237 C14.1822475,30.7736237 17.6712683,24.5502559 24.7603792,25.078332"
                  id="Path-15" stroke="#BEC1CD" stroke-width="2" stroke-linecap="round" stroke-linejoin="round"></path>
            <path d="M35.9615513,26.0048457 C35.9615513,26.0048457 41.8414932,26.4931209 46.6927525,32.1996699"
                  id="Path-15" stroke="#DBDBDB" stroke-width="2" stroke-linecap="round" stroke-linejoin="round"></path>
            <polyline id="Path-18" stroke="#6AFBDA" stroke-width="2" stroke-linecap="round" stroke-linejoin="round"
                      points="19.9516269 4.63040172 24.3143432 10.13415 28.5369728 3.53696855 31.2494817 9.81600307 36.3916993 4.26828231 39.800748 7.43269043"></polyline>
            <path d="M5.56347656,6.27304903 L2,3.99999997" id="Path-21" stroke="#5593DC" stroke-width="2"
                  stroke-linecap="round" stroke-linejoin="round"></path>
            <path d="M7.50728173,4.53696855 L6,1.00000001" id="Path-21" stroke="#5593DC" stroke-width="2"
                  stroke-linecap="round" stroke-linejoin="round"></path>
            <path d="M51.3274111,4.3718327 L52.0000001,0.999999983" id="Path-21" stroke="#5593DC" stroke-width="2"
                  stroke-linecap="round" stroke-linejoin="round"></path>
            <path d="M0.999999992,10 L5.56347656,8.58350625" id="Path-21" stroke="#5593DC" stroke-width="2"
                  stroke-linecap="round" stroke-linejoin="round"></path>
            <path d="M56.9999999,4 L53.2896079,5.83339383" id="Path-21" stroke="#5593DC" stroke-width="2"
                  stroke-linecap="round" stroke-linejoin="round"></path>
            <path d="M57,10.0000001 L53.2123337,7.92748387" id="Path-21" stroke="#5593DC" stroke-width="2"
                  stroke-linecap="round" stroke-linejoin="round"></path>
            <rect id="Rectangle" fill="#D3D4D8" x="12" y="8" width="2.51913636" height="9"></rect>
            <rect id="Rectangle" fill="#BEC1CD" x="45.0853392" y="8" width="2.51913636" height="9"></rect>
        </g>
    </g>
</svg>