<?xml version="1.0" encoding="UTF-8" standalone="no"?>
<svg width="15px" height="10px" viewBox="0 0 15 10" version="1.1" xmlns="http://www.w3.org/2000/svg"
>
    <!-- Generator: Sketch 41.1 (35376) - http://www.bohemiancoding.com/sketch -->
    <title>icon-eye</title>
    <desc>Created with Sketch.</desc>
    <defs></defs>
    <g id="onboarding" stroke="none" stroke-width="1" fill="none" fill-rule="evenodd">
        <g id="mobile---create-retro-no-password" transform="translate(-23.000000, -560.000000)" fill="#343434">
            <path d="M30.34375,560 C31.9895916,560 33.4739517,560.463537 34.796875,561.390625 C36.1197983,562.317713 37.0729137,563.520826 37.65625,565 C37.0729137,566.479174 36.1197983,567.682287 34.796875,568.609375 C33.4739517,569.536463 31.9895916,570 30.34375,570 C28.6979084,570 27.20834,569.536463 25.875,568.609375 C24.54166,567.682287 23.5833363,566.479174 23,565 C23.5833363,563.520826 24.54166,562.317713 25.875,561.390625 C27.20834,560.463537 28.6979084,560 30.34375,560 Z M30.34375,568.34375 C31.2604213,568.34375 32.0416634,568.015628 32.6875,567.359375 C33.3333366,566.703122 33.65625,565.916671 33.65625,565 C33.65625,564.083329 33.3333366,563.296878 32.6875,562.640625 C32.0416634,561.984372 31.2604213,561.65625 30.34375,561.65625 C29.4270787,561.65625 28.6406283,561.984372 27.984375,562.640625 C27.3281217,563.296878 27,564.083329 27,565 C27,565.916671 27.3281217,566.703122 27.984375,567.359375 C28.6406283,568.015628 29.4270787,568.34375 30.34375,568.34375 Z M30.328125,563 C30.8802111,563 31.3541647,563.192706 31.75,563.578125 C32.1458353,563.963544 32.34375,564.437497 32.34375,565 C32.34375,565.562503 32.1458353,566.036456 31.75,566.421875 C31.3541647,566.807294 30.8802111,567 30.328125,567 C29.7760389,567 29.3072936,566.807294 28.921875,566.421875 C28.5364564,566.036456 28.34375,565.562503 28.34375,565 C28.34375,564.437497 28.5364564,563.963544 28.921875,563.578125 C29.3072936,563.192706 29.7760389,563 30.328125,563 Z"
                  id="icon-eye"></path>
        </g>
    </g>
</svg>