<?xml version="1.0" encoding="UTF-8" standalone="no"?>
<svg width="12px" height="16px" viewBox="0 0 12 16" version="1.1" xmlns="http://www.w3.org/2000/svg"
>
    <!-- Generator: Sketch 41.1 (35376) - http://www.bohemiancoding.com/sketch -->
    <title>icon-locked</title>
    <desc>Created with Sketch.</desc>
    <defs></defs>
    <g id="onboarding" stroke="none" stroke-width="1" fill="none" fill-rule="evenodd">
        <g id="mobile---create-retro-no-password" transform="translate(-23.000000, -658.000000)" fill="#4BC1B1">
            <path d="M33.050305,663.041959 C33.431255,663.041959 33.7617801,663.182012 34.0418903,663.462122 C34.3220006,663.742233 34.4620536,664.072758 34.4620536,664.453708 L34.4620536,671.646902 C34.4620536,672.027852 34.3220006,672.358378 34.0418903,672.638488 C33.7617801,672.918598 33.431255,673.058651 33.050305,673.058651 L24.4453616,673.058651 C24.0420029,673.058651 23.7002735,672.918598 23.4201633,672.638488 C23.140053,672.358378 23,672.027852 23,671.646902 L23,664.453708 C23,664.072758 23.140053,663.742233 23.4201633,663.462122 C23.7002735,663.182012 24.0420029,663.041959 24.4453616,663.041959 L25.1512359,663.041959 L25.1512359,661.596597 C25.1512359,660.610609 25.5041695,659.764689 26.2100473,659.058811 C26.9159251,658.352934 27.7618453,658 28.7478333,658 C29.7338213,658 30.5741395,658.352934 31.2688128,659.058811 C31.9634862,659.764689 32.3108177,660.610609 32.3108177,661.596597 L32.3108177,663.041959 L33.050305,663.041959 Z M28.7310268,659.378135 C28.1147843,659.378135 27.593787,659.596618 27.1680195,660.03359 C26.7422519,660.470562 26.5293713,660.991559 26.5293713,661.596597 L26.5965975,661.596597 L26.5965975,663.041959 L30.9662953,663.041959 L30.9662953,661.596597 C30.9662953,660.991559 30.7478126,660.470562 30.3108406,660.03359 C29.8738687,659.596618 29.3472693,659.378135 28.7310268,659.378135 Z M33.050305,671.646902 L33.050305,664.453708 L24.4453616,664.453708 L24.4453616,671.646902 L33.050305,671.646902 Z M28.7310268,669.495667 C28.3388725,669.495667 28.0027452,669.355614 27.722635,669.075503 C27.4425247,668.795393 27.3024717,668.453664 27.3024717,668.050305 C27.3024717,667.646946 27.4425247,667.305217 27.722635,667.025107 C28.0027452,666.744996 28.3388725,666.604943 28.7310268,666.604943 C29.1231811,666.604943 29.4593084,666.744996 29.7394186,667.025107 C30.0195288,667.305217 30.1595818,667.646946 30.1595818,668.050305 C30.1595818,668.453664 30.0195288,668.795393 29.7394186,669.075503 C29.4593084,669.355614 29.1231811,669.495667 28.7310268,669.495667 Z"
                  id="icon-locked"></path>
        </g>
    </g>
</svg>