<?xml version="1.0" encoding="UTF-8" standalone="no"?>
<svg width="74px" height="68px" viewBox="0 0 74 68" version="1.1" xmlns="http://www.w3.org/2000/svg"
     xmlns:xlink="http://www.w3.org/1999/xlink">
    <!-- Generator: Sketch 39.1 (31720) - http://www.bohemiancoding.com/sketch -->
    <title>meh</title>
    <desc>Created with Sketch.</desc>
    <defs>
        <path d="M68.7107034,33.2670286 C68.7198337,33.2281581 68.7291965,33.1894708 68.7387995,33.1509739 C71.0912622,26.3694608 71.8815072,22.0713196 71.848007,19.2064793 L71.9200281,19.0924969 C71.9109697,19.0160654 71.901351,18.9400304 71.8911761,18.8643902 C72.1449291,16.5637774 70.6846214,13.6393627 69.0933192,11.9287995 C68.6000458,11.3985574 67.8080822,10.8575431 66.7748921,10.3279079 C61.8268889,6.70742766 54.0556673,5.62543363 46.4375187,5.93461369 C38.8193454,5.62543186 31.0481152,6.7074247 26.1001079,10.3279079 C25.0669178,10.8575431 24.2749542,11.3985574 23.7816808,11.9287995 C22.1903786,13.6393627 20.7300709,16.5637774 20.9838239,18.8643902 C20.973649,18.9400304 20.9640303,19.0160654 20.9549719,19.0924969 L21.0390196,19.225513 C21.046562,19.263694 21.0546319,19.3016633 21.0632373,19.3394118 C20.9949129,19.6934418 20.9382713,20.0556285 20.8937168,20.4260819 L23.0152901,33.3412097 C23.7636135,38.2729974 23.8010169,40.3959241 24.095765,41.1725374 L24.095765,58.2710005 C24.095765,60.4042209 25.9927462,62.4743904 28.2622745,62.4743904 L63.3398216,62.4743904 C65.6103877,62.4743904 67.6817084,60.4042209 67.6817084,58.2710005 L67.6817084,41.3265984 C68.1677147,40.1514744 68.2337978,38.5256524 68.3172955,36.8625 C68.4907299,35.3719446 68.641187,33.9404468 68.7107034,33.2670286 L68.7107034,33.2670286 L68.7107034,33.2670286 Z M57.5305764,66.6777802 L33.2579348,66.6777802 C32.5097273,66.6777802 31.9036896,66.0640853 31.9036896,65.3064243 L31.9036896,62.4743904 L58.8848216,62.4743904 L58.8848216,65.3064243 C58.8848216,66.0640853 58.2787839,66.6777802 57.5305764,66.6777802 L57.5305764,66.6777802 Z"
              id="path-1"></path>
        <mask id="mask-2" maskContentUnits="userSpaceOnUse" maskUnits="objectBoundingBox" x="-2" y="-2"
              width="55.0263113" height="64.7932271">
            <rect x="18.8937168" y="3.88455314" width="55.0263113" height="64.7932271" fill="white"></rect>
            <use xlink:href="#path-1" fill="black"></use>
        </mask>
    </defs>
    <g id="main-heads" stroke="none" stroke-width="1" fill="none" fill-rule="evenodd">
        <g id="meh" transform="translate(0.000000, -1.000000)">
            <g id="Combined-Shape">
                <use fill="#FDAF13" fill-rule="evenodd" xlink:href="#path-1"></use>
                <use stroke="#FDAF13" mask="url(#mask-2)" stroke-width="4" xlink:href="#path-1"></use>
            </g>
            <path d="M24.095765,41.1725374 L24.095765,58.2710005 C24.095765,60.4042209 25.9927462,62.4743904 28.2622745,62.4743904 L63.3398216,62.4743904 C65.6103877,62.4743904 67.6817084,60.4042209 67.6817084,58.2710005 L67.6817084,41.3265984 C68.5410571,39.2487626 68.0875263,35.7618304 68.7387995,33.1509739 C74.5195331,16.4866839 70.8670028,14.8179365 68.7387981,12.5635885 C66.7797253,10.4883971 57.5222892,7.73048247 49.6972656,6.73644016 C36.5875866,5.0710681 22.3433015,8.37333811 20.8937168,20.4260819 L23.0152901,33.3412097 C23.7636135,38.2729974 23.8010169,40.3959241 24.095765,41.1725374 Z"
                  id="Combined-Shape" fill="#BEBEBE"></path>
            <ellipse id="Oval" fill="#FFFFFF" cx="37.0923688" cy="41.4065938" rx="6.22641509" ry="6.30508475"></ellipse>
            <ellipse id="Oval" fill="#F5A623" cx="35.0168971" cy="39.3048988" rx="2.0754717" ry="2.10169492"></ellipse>
            <path d="M71.5664064,21.074575 C71.237695,26.2798972 68.7517091,32.8660789 68.7517091,32.8660789 C68.7517091,32.8660789 68.0529773,39.8114759 67.6817084,41.3265984 L67.6817084,58.2710005 C67.6817084,60.4042209 65.6103877,62.4743904 63.3398216,62.4743904 L46.8564453,62.4743904 C46.7645144,62.4743902 46.4624023,34.1563723 46.4624023,34.8421531 C52.9953613,19.5311179 46.7905861,8.37835238 46.7645145,8.37779758 C46.7905861,8.37835238 51.2138721,8.86204353 54.3913579,9.21935032 C59.8498012,9.83314972 64.2579346,11.4129609 65.8488771,12.2806297 C66.0386411,12.3841233 71.8951178,15.8692529 71.5664064,21.074575 Z"
                  id="Combined-Shape" fill="#A1A5B9"></path>
            <ellipse id="Oval" fill="#FFFFFF" cx="55.7716141" cy="41.4065938" rx="6.22641509" ry="6.30508475"></ellipse>
            <ellipse id="Oval" fill="#F5A623" cx="53.6961424" cy="39.3048988" rx="2.0754717" ry="2.10169492"></ellipse>
            <path d="M57.5305764,66.6777802 L33.2579348,66.6777802 C32.5097273,66.6777802 31.9036896,66.0640853 31.9036896,65.3064243 L31.9036896,62.4743904 L58.8848216,62.4743904 L58.8848216,65.3064243 C58.8848216,66.0640853 58.2787839,66.6777802 57.5305764,66.6777802 L57.5305764,66.6777802 Z"
                  id="Shape" fill="#8C8C8C"></path>
            <g id="Group-18" transform="translate(27.752746, 47.762526)" fill="#DBDBDB">
                <path d="M4.46226415,3.03694915 C4.18207547,3.03694915 3.91226415,2.92135593 3.7254717,2.72169492 C3.52830189,2.53254237 3.4245283,2.25932203 3.4245283,1.98610169 C3.4245283,1.71288136 3.52830189,1.43966102 3.7254717,1.24 C4.11981132,0.840677966 4.80471698,0.851186441 5.1990566,1.24 C5.38584906,1.43966102 5.5,1.71288136 5.5,1.98610169 C5.5,2.25932203 5.38584906,2.53359322 5.1990566,2.72169492 C5.00084906,2.92030508 4.73207547,3.03694915 4.46226415,3.03694915 L4.46226415,3.03694915 Z"
                      id="Shape"></path>
                <path d="M4.66981132,7.4820339 C4.38858491,7.4820339 4.11981132,7.37589831 3.93301887,7.17728814 C3.74518868,6.98708475 3.63207547,6.71491525 3.63207547,6.44169492 C3.63207547,6.15691525 3.74518868,5.88474576 3.94339623,5.69559322 C4.30660377,5.30677966 5.01226415,5.29627119 5.40660377,5.69559322 C5.59339623,5.88474576 5.70754717,6.15691525 5.70754717,6.44169492 C5.70754717,6.71491525 5.59339623,6.98813559 5.40660377,7.17728814 C5.20943396,7.37694915 4.95,7.4820339 4.66981132,7.4820339 L4.66981132,7.4820339 Z"
                      id="Shape"></path>
                <path d="M1.03773585,8.40677966 C0.767924528,8.40677966 0.497075472,8.29118644 0.300943396,8.1020339 C0.113113208,7.90237288 0,7.62915254 0,7.3559322 C0,7.08271186 0.113113208,6.80844068 0.300943396,6.60983051 C0.68490566,6.23152542 1.39056604,6.22101695 1.7745283,6.60983051 C1.97066038,6.80844068 2.0754717,7.08271186 2.0754717,7.3559322 C2.0754717,7.62915254 1.97066038,7.90237288 1.7745283,8.1020339 C1.57735849,8.29118644 1.31792453,8.40677966 1.03773585,8.40677966 L1.03773585,8.40677966 Z"
                      id="Shape"></path>
                <path d="M32.3877358,2.90033898 C32.1065094,2.90033898 31.8377358,2.79525424 31.6509434,2.59559322 C31.4537736,2.3959322 31.3396226,2.12271186 31.3396226,1.84949153 C31.3396226,1.57627119 31.4527358,1.30305085 31.6509434,1.10338983 C32.0349057,0.714576271 32.7301887,0.714576271 33.1141509,1.10338983 C33.310283,1.30305085 33.4150943,1.56576271 33.4150943,1.84949153 C33.4150943,2.12271186 33.310283,2.3959322 33.1141509,2.59559322 C32.9169811,2.79525424 32.6575472,2.90033898 32.3877358,2.90033898 L32.3877358,2.90033898 Z"
                      id="Shape"></path>
                <path d="M32.1698113,7.3559322 C31.9,7.3559322 31.6291509,7.24033898 31.4330189,7.05118644 C31.2451887,6.85152542 31.1320755,6.57830508 31.1320755,6.30508475 C31.1320755,6.03186441 31.2451887,5.75759322 31.4330189,5.55898305 C31.8273585,5.17016949 32.5226415,5.17016949 32.9066038,5.55898305 C33.1027358,5.75759322 33.2075472,6.03186441 33.2075472,6.30508475 C33.2075472,6.57830508 33.1027358,6.85152542 32.9066038,7.05118644 C32.709434,7.24033898 32.4396226,7.3559322 32.1698113,7.3559322 L32.1698113,7.3559322 Z"
                      id="Shape"></path>
                <path d="M35.8018868,8.27016949 C35.5320755,8.27016949 35.2612264,8.1640339 35.0650943,7.96542373 C34.8679245,7.76576271 34.7641509,7.49254237 34.7641509,7.22983051 C34.7641509,6.94505085 34.8679245,6.68233898 35.0650943,6.48372881 C35.4490566,6.09491525 36.154717,6.09491525 36.5386792,6.48372881 C36.7254717,6.68233898 36.8396226,6.94505085 36.8396226,7.22983051 C36.8396226,7.50305085 36.7254717,7.76576271 36.5386792,7.96542373 C36.3415094,8.16508475 36.0716981,8.27016949 35.8018868,8.27016949 L35.8018868,8.27016949 Z"
                      id="Shape"></path>
            </g>
            <path d="M40.3141083,58.3378093 C39.9487896,58.0088941 39.8572592,57.3542161 40.1085663,56.8760805 C40.2065199,56.6890297 41.6676785,54.0262212 45.329697,53.3032382 C47.3714671,52.8997128 48.4277941,52.7857676 51.4125697,52.9343517 C51.4619266,52.9368087 50.9477434,52.9247707 50.9882081,52.9343517 C51.2881525,53.0053704 51.661661,53.1960676 51.7581749,53.4929602 C51.855274,53.7916528 51.6740809,54.1969755 51.5450479,54.4107924 C51.2704567,54.8647585 47.4619689,54.7580327 45.876245,55.0753887 C42.8950841,55.6649141 41.4510121,58.029911 41.4301367,58.0677415 C41.2751774,58.3651314 41.0246731,58.5238093 40.7685486,58.5238093 C40.6119835,58.5238093 40.4530096,58.463911 40.3141083,58.3378093 Z"
                  id="Shape" fill="#444D66"
                  transform="translate(45.876245, 55.697845) rotate(21.000000) translate(-45.876245, -55.697845) "></path>
            <g id="Group-22" transform="translate(0.021484, 0.738096)" fill="#FFFFFF">
                <path d="M16.1945286,11.7676545 L13.9606021,11.7676545 L13.9606021,10.2449567 C13.9606021,9.73362846 14.0656147,9.33133949 14.275643,9.03807771 C14.4856713,8.74481593 14.9458174,8.32748812 15.656095,7.78608176 C16.7406049,6.96645268 17.2828518,6.09795967 17.2828518,5.18057667 C17.2828518,4.48877965 17.0709173,3.93986199 16.6470419,3.53380722 C16.2231665,3.12775245 15.6713731,2.92472811 14.9916451,2.92472811 C13.4183419,2.92472811 12.4904125,3.99624546 12.2078289,6.13931231 L9.71041365,5.69942184 C9.86316152,4.09776135 10.4645973,2.84013835 11.5147389,1.92651512 C12.5648806,1.01289188 13.8231223,0.556087114 15.2895019,0.556087114 C16.7482442,0.556087114 17.9549343,0.9828142 18.9096085,1.83628117 C19.8642827,2.68974815 20.3416127,3.75186622 20.3416127,5.02266727 C20.3416127,5.65430803 20.2098696,6.25398177 19.9463795,6.8217065 C19.6828895,7.38943123 19.3831262,7.8293173 19.0470809,8.14137791 C18.7110356,8.45343852 18.0007686,9.00047633 16.9162587,9.78250774 C16.6107629,10.0005742 16.4160123,10.2129978 16.332001,10.419785 C16.2479897,10.6265721 16.202166,11.0758575 16.1945286,11.7676545 L16.1945286,11.7676545 Z M16.6527699,13.369307 L16.6527699,16.1891177 L13.9606021,16.1891177 L13.9606021,13.369307 L16.6527699,13.369307 Z"
                      id="?"></path>
                <path d="M6.67185377,28.5596 L4.43792725,28.5596 L4.43792725,27.0369022 C4.43792725,26.525574 4.54293984,26.123285 4.75296817,25.8300232 C4.9629965,25.5367615 5.42314257,25.1194336 6.1334202,24.5780273 C7.21793012,23.7583982 7.76017695,22.8899052 7.76017695,21.9725222 C7.76017695,21.2807252 7.54824245,20.7318075 7.12436709,20.3257527 C6.70049173,19.919698 6.14869831,19.7166736 5.46897026,19.7166736 C3.89566713,19.7166736 2.9677377,20.788191 2.68515413,22.9312578 L0.187738833,22.4913674 C0.34048671,20.8897069 0.941922452,19.6320839 1.9920641,18.7184606 C3.04220575,17.8048374 4.30044751,17.3480326 5.76682713,17.3480326 C7.22556935,17.3480326 8.43225947,17.7747597 9.3869337,18.6282267 C10.3416079,19.4816937 10.8189379,20.5438117 10.8189379,21.8146128 C10.8189379,22.4462535 10.6871948,23.0459273 10.4237047,23.613652 C10.1602146,24.1813767 9.86045143,24.6212628 9.5244061,24.9333234 C9.18836077,25.245384 8.4780938,25.7924218 7.39358388,26.5744533 C7.08808813,26.7925197 6.8933375,27.0049433 6.80932617,27.2117305 C6.72531484,27.4185176 6.67949116,27.867803 6.67185377,28.5596 L6.67185377,28.5596 Z M7.13009511,30.1612525 L7.13009511,32.9810632 L4.43792725,32.9810632 L4.43792725,30.1612525 L7.13009511,30.1612525 Z"
                      id="?"></path>
            </g>
            <path d="" id="Path-3" stroke="#979797"></path>
            <path d="M41.4222399,29.1797956 C42.7207666,30.8902083 46.4338586,34.820435 46.4374979,34.8242863 C46.4411413,34.820435 50.1542334,30.8902083 51.4527601,29.1797956 C53.467734,26.5256826 55.5825817,25.0024474 57.8905064,23.9917216 C62.3213642,23.0591536 67.6994985,23.9622975 70.8421361,21.0533696 C71.3828675,20.5528509 71.697868,19.9246661 71.8359804,19.225513 L71.9200281,19.0924969 C71.9109697,19.0160654 71.901351,18.9400304 71.8911761,18.8643902 C72.1449291,16.5637774 70.6846214,13.6393627 69.0933192,11.9287995 C68.6000458,11.3985574 67.8080822,10.8575431 66.7748921,10.3279079 C61.8268889,6.70742766 54.0556673,5.62543363 46.4375187,5.93461369 C38.8193454,5.62543186 31.0481152,6.7074247 26.1001079,10.3279079 C25.0669178,10.8575431 24.2749542,11.3985574 23.7816808,11.9287995 C22.1903786,13.6393627 20.7300709,16.5637774 20.9838239,18.8643902 C20.973649,18.9400304 20.9640303,19.0160654 20.9549719,19.0924969 L21.0390196,19.225513 C21.177132,19.9246661 21.4921325,20.5528509 22.0328639,21.0533696 C25.1755015,23.9622975 30.5536358,23.0591536 34.9844936,23.9917216 C37.2924183,25.0024474 39.407266,26.5256826 41.4222399,29.1797956 Z"
                  id="Combined-Shape" fill="#D3D4D8"></path>
            <path d="M57.3582542,6.63853882 C53.9124046,5.99283086 50.1567198,5.8121983 46.4375187,5.96314086 C42.7183017,5.81219728 38.9626047,5.99282964 35.5167463,6.63853909 C37.6190624,7.6476502 39.56316,9.13376045 41.4222399,11.5825308 C42.7207666,13.2929434 46.4338586,17.2231701 46.4374979,17.2270214 C46.4411413,17.2231702 50.1542334,13.2929434 51.4527601,11.5825308 C53.3118402,9.13376023 55.2559379,7.64764994 57.3582542,6.63853882 Z"
                  id="Combined-Shape" fill-opacity="0.5" fill="#B6B6B6"></path>
            <path d="" id="Path-5" stroke="#979797"></path>
            <g id="Group-26" transform="translate(38.937500, 10.867300)">
                <circle id="Oval-7" stroke="#78D7A8" stroke-width="1.4" fill="#FFFFFF" cx="7.5" cy="8.5"
                        r="7.5"></circle>
                <path d="M7.99602112,10.3433776 L6.61948172,10.3433776 L6.61948172,9.40509541 C6.61948172,9.09001636 6.68419019,8.842127 6.81360908,8.66141989 C6.94302796,8.48071279 7.22656871,8.22355653 7.66423983,7.88994342 C8.33251187,7.38489023 8.66664288,6.84972722 8.66664288,6.28443833 C8.66664288,5.8581549 8.53604942,5.51991335 8.27485859,5.26970351 C8.01366776,5.01949367 7.67365416,4.89439063 7.2548076,4.89439063 C6.28534253,4.89439063 5.71355496,5.55465668 5.53942774,6.8752086 L4.00052728,6.6041493 C4.0946501,5.6172105 4.46525316,4.84226666 5.11234756,4.27929452 C5.75944197,3.71632239 6.53476709,3.43484055 7.43834619,3.43484055 C8.33721914,3.43484055 9.08077829,3.69778861 9.66904593,4.22369262 C10.2573136,4.74959662 10.551443,5.40407087 10.551443,6.18713499 C10.551443,6.57635029 10.4702633,6.94586761 10.3079014,7.29569803 C10.1455395,7.64552845 9.96082625,7.91658504 9.75375604,8.10887593 C9.54668584,8.30116682 9.10902128,8.63825002 8.44074923,9.12013563 C8.25250359,9.25450758 8.13249879,9.38540243 8.08073124,9.51282411 C8.02896369,9.64024578 8.00072726,9.91709418 7.99602112,10.3433776 L7.99602112,10.3433776 Z M8.27838818,11.3303115 L8.27838818,13.0678711 L6.61948172,13.0678711 L6.61948172,11.3303115 L8.27838818,11.3303115 Z"
                      id="?" fill="#444D66"></path>
                <path d="M7.37339724,16.5845947 C11.8455082,16.5845947 15.4708704,12.9592325 15.4708704,8.48712158 C15.4708704,4.01501065 11.8455082,0.389648438 7.37339724,0.389648438 C7.37339724,0.389648438 7.37339726,16.5845947 7.37339724,16.5845947 Z"
                      id="Oval-7" fill-opacity="0.599999964" fill="#4990E2" style="mix-blend-mode: overlay;"></path>
            </g>
        </g>
    </g>
</svg>