<?xml version="1.0" encoding="UTF-8" standalone="no"?>
<svg width="67px" height="69px" viewBox="0 0 67 69" version="1.1" xmlns="http://www.w3.org/2000/svg"
     xmlns:xlink="http://www.w3.org/1999/xlink">
    <!-- Generator: Sketch 39.1 (31720) - http://www.bohemiancoding.com/sketch -->
    <title>sad</title>
    <desc>Created with Sketch.</desc>
    <defs>
        <path d="M49.0735513,43.8807694 L49.0735513,48.9240923 C49.0735513,51.2137192 47.1627657,53.0810257 44.8292751,53.0810257 L8.78671713,53.0810257 C6.45852689,53.0810257 4.54774128,51.2137192 4.54774128,48.9240923 L4.54774128,41.5257223 C3.35671814,41.8326258 2.01998709,41.516894 1.19923639,40.6324477 C0.11556065,39.4566066 0.336005578,37.7171752 1.68365529,36.7679352 C2.20310386,36.4012833 3.34201102,36.1148927 4.54774128,35.9026588 L4.54774128,21.9608834 C4.99082992,22.059545 5.45158727,22.1115949 5.92455233,22.1115949 C9.39404218,22.1115949 12.2066194,19.3107226 12.2066194,15.8556716 C12.2066194,14.8443349 11.965636,13.8890486 11.5377329,13.0436514 L15.1049767,11.8666992 L18.2367561,5.23058049 L45.4108974,5.23058049 C47.4337253,5.23058049 49.0735513,6.8663456 49.0735513,8.88174406 L49.0735513,17.4800818 L49.0735513,38.2577059 C50.2792816,38.4699398 51.4181888,38.7563305 51.9376373,39.1229823 C53.285287,40.0722223 53.505732,41.8116538 52.4220562,42.9874948 C51.6013055,43.8719411 50.2645745,44.1876729 49.0735513,43.8807694 L49.0735513,43.8807694 Z M39.2082262,57.2379591 L14.4143915,57.2379591 C13.6471621,57.2379591 13.0323184,56.6350153 13.0323184,55.8839345 L13.0323184,53.0810257 L40.5889742,53.0810257 L40.5889742,55.8839345 C40.5889742,56.6350153 39.9741305,57.2379591 39.2082262,57.2379591 L39.2082262,57.2379591 Z M40.8957613,0.0173110662 L42.9897836,0.0173110662 L42.9897836,5.23058049 L40.8957613,5.23058049 L40.8957613,0.0173110662 L40.8957613,0.0173110662 Z M36.1341098,0.0173110662 L38.2281322,0.0173110662 L38.2281322,5.23058049 L36.1341098,5.23058049 L36.1341098,0.0173110662 L36.1341098,0.0173110662 Z"
              id="path-1"></path>
        <mask id="mask-2" maskContentUnits="userSpaceOnUse" maskUnits="objectBoundingBox" x="-2" y="-2"
              width="56.6000764" height="61.220648">
            <rect x="-1.48939187" y="-1.98268893" width="56.6000764" height="61.220648" fill="white"></rect>
            <use xlink:href="#path-1" fill="black"></use>
        </mask>
        <rect id="path-3" x="56.499469" y="8.21087524" width="2.32449866" height="5.78912476"></rect>
        <mask id="mask-4" maskContentUnits="userSpaceOnUse" maskUnits="objectBoundingBox" x="0" y="0" width="2.32449866"
              height="5.78912476" fill="white">
            <use xlink:href="#path-3"></use>
        </mask>
        <rect id="path-5" x="51.9819041" y="8.21087524" width="2.32449866" height="5.78912476"></rect>
        <mask id="mask-6" maskContentUnits="userSpaceOnUse" maskUnits="objectBoundingBox" x="0" y="0" width="2.32449866"
              height="5.78912476" fill="white">
            <use xlink:href="#path-5"></use>
        </mask>
        <polygon id="path-7"
                 points="6.09292244 12.1351931 5.36549647 12.7761187 2.93284057 9.93968017 3.66026655 9.2987546"></polygon>
        <mask id="mask-8" maskContentUnits="userSpaceOnUse" maskUnits="objectBoundingBox" x="0" y="0" width="3.16008187"
              height="3.47736408" fill="white">
            <use xlink:href="#path-7"></use>
        </mask>
    </defs>
    <g id="main-heads" stroke="none" stroke-width="1" fill="none" fill-rule="evenodd">
        <g id="sad" transform="translate(-4.000000, 1.000000)">
            <g id="Group-25" transform="translate(15.738715, 8.377798)">
                <g id="Combined-Shape">
                    <use fill="#D72D25" fill-rule="evenodd" xlink:href="#path-1"></use>
                    <use stroke="#D72D25" mask="url(#mask-2)" stroke-width="4" xlink:href="#path-1"></use>
                </g>
            </g>
            <path d="M54.3852627,65.7664152 L30.7046801,65.7664152 C29.9718996,65.7664152 29.3846626,65.101361 29.3846626,64.2729098 L29.3846626,61.1812678 L55.7040146,61.1812678 L55.7040146,64.2729098 C55.7040146,65.101361 55.1167776,65.7664152 54.3852627,65.7664152 L54.3852627,65.7664152 Z"
                  id="Fill-7" fill="#8C8C8C"></path>
            <path d="M33.975471,13.7590366 L61.1496123,13.7590366 C63.1724402,13.7590366 64.8122662,15.3948017 64.8122662,17.4102001 L64.8122662,26.0085378 L64.8122662,57.4525483 C64.8122662,59.7421753 62.9014806,61.6094818 60.56799,61.6094818 L24.525432,61.6094818 C22.1972418,61.6094818 20.2864562,59.7421753 20.2864562,57.4525483 L20.2864562,30.4893394 C20.7295448,30.588001 21.1903022,30.640051 21.6632672,30.640051 C25.1327571,30.640051 27.9453343,27.8391787 27.9453343,24.3841277 C27.9453343,23.3727909 27.7043509,22.4175046 27.2764478,21.5721074 L30.8436916,20.3951552 L33.975471,13.7590366 L33.975471,13.7590366 Z"
                  id="Combined-Shape" fill="#B6B6B6"></path>
            <path d="M41.8076311,27.2843959 L41.8076311,57.6006405 C41.8076311,59.902365 42.7972127,61.7795375 44.0029649,61.7795375 L60.8004509,61.7795389 C62.0089482,61.7795389 64.867214,59.902365 64.867214,57.6006405 L64.867214,25.9904923 L64.867214,17.3467244 C64.867214,15.3206774 63.2256211,13.6762695 61.2006136,13.6762695 L41.8076311,13.6762695 L41.8076311,27.2843959 L41.8076311,27.2843959 Z"
                  id="Combined-Shape" fill="#A1A5B9"></path>
            <path d="M38.4946289,40.8710305 C38.4946289,44.1737663 35.7964704,46.848122 32.4596722,46.848122 C29.1077582,46.848122 26.4058208,44.1737663 26.4058208,40.8710305 C26.4058208,37.5570737 29.1077582,34.882718 32.4596722,34.882718 C35.7964704,34.882718 38.4946289,37.5570737 38.4946289,40.8710305 L38.4946289,40.8710305 Z"
                  id="Fill-6" fill="#FFFFFF"></path>
            <path d="M58.0263081,43.4453127 C58.0263081,46.7480485 55.3281496,49.4224042 51.9913514,49.4224042 C48.6394374,49.4224042 45.9375,46.7480485 45.9375,43.4453127 C45.9375,40.1313558 48.6394374,37.4570001 51.9913514,37.4570001 C55.3281496,37.4570001 58.0263081,40.1313558 58.0263081,43.4453127 L58.0263081,43.4453127 Z"
                  id="Fill-6" fill="#FFFFFF"></path>
            <path d="M17.1418342,48.9754917 C16.1068159,47.8477531 16.3173627,46.17948 17.6045025,45.2690725 C18.896324,44.3534319 24.1994305,43.9596927 24.1958526,43.9844955 C24.1958526,43.9844955 22.6735579,48.4396912 21.3817364,49.3553318 C20.0828282,50.2656548 18.1800821,50.0989901 17.1418342,48.9754917 L17.1418342,48.9754917 L17.1418342,48.9754917 Z"
                  id="Fill-9" fill="#5493DD"></path>
            <path d="M61.5105998,50.9920959 C60.4755815,49.8643573 60.6861284,48.1960842 61.9732681,47.2856766 C63.2650897,46.370036 68.5681961,45.9762968 68.5646182,46.0010997 C68.5646182,46.0010997 67.0423235,50.4562954 65.750502,51.371936 C64.4515939,52.2822589 62.5488477,52.1155942 61.5105998,50.9920959 L61.5105998,50.9920959 L61.5105998,50.9920959 Z"
                  id="Fill-9" fill="#5493DD"
                  transform="translate(64.708756, 48.979215) scale(-1, 1) translate(-64.708756, -48.979215) "></path>
            <use id="Rectangle-29" stroke="#979797" mask="url(#mask-4)" stroke-width="2" fill="#979797"
                 xlink:href="#path-3"></use>
            <use id="Rectangle-29" stroke="#979797" mask="url(#mask-6)" stroke-width="2" fill="#979797"
                 xlink:href="#path-5"></use>
            <path d="M53.3010091,43.4062957 L55.8360911,40.8712137 L54.4218776,39.4570001 L51.8867956,41.9920821 L49.3517136,39.4570001 L47.9375,40.8712137 L50.472582,43.4062957 L47.9375,45.9413777 L49.3517136,47.3555912 L51.8867956,44.8205092 L54.4218776,47.3555912 L55.8360911,45.9413777 L53.3010091,43.4062957 Z"
                  id="Combined-Shape" fill="#444D66"></path>
            <path d="M33.9595469,40.8988265 L36.4946289,38.3637445 L35.0804153,36.9495309 L32.5453333,39.4846129 L30.0102514,36.9495309 L28.5960378,38.3637445 L31.1311198,40.8988265 L28.5960378,43.4339085 L30.0102514,44.848122 L32.5453333,42.3130401 L35.0804153,44.848122 L36.4946289,43.4339085 L33.9595469,40.8988265 Z"
                  id="Combined-Shape" fill="#444D66"></path>
            <path d="M23.9242831,15.5729869 C21.8255919,15.3524724 18.3879136,13.563876 17.7742547,12.3276595 C17.3428275,11.4585489 17.146098,11.0484005 17.141805,10.6284225 C17.0999928,6.53794949 21.6174459,8.0219704 21.4914656,9.96109879 C21.4559949,10.5070744 21.328593,10.6319832 21.1426423,11.1456491 C19.5303306,15.5994611 12.447469,13.1135344 12.256861,9.2025117 C12.2386328,8.82849342 12.2091437,7.5091543 12.7481029,6.72857833 C13.3983168,5.78687175 14.6955548,5.45161478 15.4754438,6.17827171 C17.676281,8.22888849 15.0301486,10.1097901 12.9998823,10.213454 C10.7562297,10.3280131 7.32246538,9.28309741 7.16995851,5.72680773 C7.09690499,4.02328131 9.28810143,3.69056806 10.1734469,3.97757259 C10.6005049,4.11601297 11.8546227,4.83032484 11.1156655,6.19647877 C10.5064643,7.32274512 8.29549293,8.12948947 7.57442887,8.09550083 C3.67859503,7.91186378 2.47859776,5.63054146 1.92428305,3.83134046"
                  id="Path-9" stroke="#FEC722" stroke-width="1.2"
                  transform="translate(12.924283, 9.702164) rotate(23.000000) translate(-12.924283, -9.702164) "></path>
            <g id="Group-17" transform="translate(3.281046, 29.766415)">
                <g id="Group-20"
                   transform="translate(8.372802, 8.542523) rotate(-34.000000) translate(-8.372802, -8.542523) translate(1.694230, 4.234830)">
                    <path d="M4.88498434,2.27591551 L11.7816875,1.47289952 C11.7816875,1.47289952 12.8094265,1.61168936 12.8948941,2.61847115 C12.9803617,3.62525294 12.4049271,3.75925352 12.4049271,3.75925352 L5.51701899,4.73097989"
                          id="Path-13" fill="#858585"></path>
                    <polyline id="Path-12" fill="#9C9C9C"
                              points="1.28459279 0.452676096 3.02519631 0.0567831508 5.05078219 0.94719755 6.08507164 4.64943162 5.08333405 7.49289369 3.25926947 7.70843943"></polyline>
                    <polygon id="Path-11" fill="#D8D8D8"
                             points="0.0696735372 3.25244166 1.19009591 0.474842623 3.38724749 1.33740145 4.41587814 4.99620335 3.28715046 7.70843943 1.112026 6.85835833"></polygon>
                </g>
                <use id="Rectangle-33" stroke="#979797" mask="url(#mask-8)" stroke-width="2" fill="#D8D8D8"
                     xlink:href="#path-7"></use>
            </g>
            <path d="" id="Path-4" stroke="#979797"></path>
            <path d="M38.0598145,53.7011983 C40.4521771,54.1566883 40.6680713,57.1581506 43.1810037,57.6470427 C45.3896617,58.076738 51.7276559,57.4105359 47.1903962,54.0177029 C46.2025636,53.27903 46.471324,53.4003388 45.2761228,52.855251 C45.067314,52.7600209 43.1385337,51.9234599 42.5725427,52.2536617 C42.0065517,52.5838635 40.512079,52.6884162 39.9777832,52.855251 C38.9418082,53.178736 39.8582265,53.0346373 38.7888253,53.2400166 L38.0598145,53.7011983 Z"
                  id="Path-14" fill="#E34E40"></path>
            <path d="M32.3591309,55.9695088 C32.3591309,55.9695088 41.1464844,48.102321 54.6459961,55.9834248"
                  id="Path-15" stroke="#444D66" stroke-width="2" stroke-linecap="round" stroke-linejoin="round"></path>
            <path d="M25.8239677,34.9267634 C25.8239677,34.9267634 29.3129885,28.7033955 36.4020994,29.2314717"
                  id="Path-15" stroke="#8C8C8C" stroke-width="2" stroke-linecap="round" stroke-linejoin="round"></path>
            <path d="M47.6032715,30.1579854 C47.6032715,30.1579854 53.4832134,30.6462606 58.3344727,36.3528096"
                  id="Path-15" stroke="#707070" stroke-width="2" stroke-linecap="round" stroke-linejoin="round"></path>
        </g>
    </g>
</svg>